M48
;DRILL file {KiCad (5.0.1-3-g963ef8bb5)} date Thursday, 21 May 2020 at 20:40:53
;FORMAT={-:-/ absolute / inch / decimal}
FMAT,2
INCH,TZ
T1C0.0300
T2C0.0315
T3C0.0394
T4C0.0472
T5C0.0984
%
G90
G05
M72
T1
X4.35Y-3.16
X4.35Y-4.16
X4.45Y-3.16
X4.45Y-4.16
X4.55Y-3.16
X4.55Y-4.16
X4.65Y-3.16
X4.65Y-4.16
X4.75Y-3.16
X4.75Y-4.16
X4.85Y-3.16
X4.85Y-4.16
X4.95Y-3.16
X4.95Y-4.16
X5.05Y-3.16
X5.05Y-4.16
X5.15Y-3.16
X5.15Y-4.16
X5.25Y-3.16
X5.25Y-4.16
X5.35Y-3.16
X5.35Y-4.16
X5.45Y-3.16
X5.45Y-4.16
X5.55Y-3.16
X5.55Y-4.16
X5.65Y-3.16
X5.65Y-4.16
X5.75Y-3.16
X5.75Y-4.16
X5.85Y-3.16
X5.85Y-4.16
X5.95Y-3.16
X5.95Y-4.16
X6.05Y-3.16
X6.05Y-4.16
X6.15Y-3.16
X6.15Y-4.16
X6.25Y-3.16
X6.25Y-4.16
T2
X6.8Y-3.5
X6.9Y-3.5
X7.05Y-3.5504
X7.05Y-3.7
X6.8Y-4.05
X6.9Y-3.95
X6.9Y-4.15
X6.7Y-3.75
X6.8969Y-3.75
X6.55Y-3.5
X6.65Y-3.5
X6.55Y-2.95
X6.55Y-3.25
X6.65Y-2.95
X6.65Y-3.25
X6.75Y-2.95
X6.75Y-3.25
X6.85Y-2.95
X6.85Y-3.25
X6.95Y-2.95
X6.95Y-3.25
X7.05Y-2.95
X7.05Y-3.25
X7.15Y-2.95
X7.15Y-3.25
X6.55Y-3.7
X6.55Y-4.1
T3
X4.1531Y-3.425
X4.1531Y-3.525
X4.1531Y-3.625
X4.1531Y-3.725
X4.1531Y-3.825
X4.1531Y-3.925
T4
X4.35Y-4.3
X4.45Y-4.3
X4.55Y-4.3
X4.65Y-4.3
X4.75Y-4.3
X4.85Y-4.3
X4.95Y-4.3
X5.05Y-4.3
X5.15Y-4.3
X5.25Y-4.3
X5.35Y-4.3
X5.45Y-4.3
X5.55Y-4.3
X5.65Y-4.3
X5.75Y-4.3
X5.85Y-4.3
T5
X4.1335Y-3.0795
X4.1335Y-4.3
X7.0862Y-3.0795
X7.0862Y-4.3
T0
M30
