G04 #@! TF.GenerationSoftware,KiCad,Pcbnew,(5.0.1-3-g963ef8bb5)*
G04 #@! TF.CreationDate,2020-05-21T20:41:20+01:00*
G04 #@! TF.ProjectId,Acorn_POST,41636F726E5F504F53542E6B69636164,rev?*
G04 #@! TF.SameCoordinates,Original*
G04 #@! TF.FileFunction,Legend,Bot*
G04 #@! TF.FilePolarity,Positive*
%FSLAX46Y46*%
G04 Gerber Fmt 4.6, Leading zero omitted, Abs format (unit mm)*
G04 Created by KiCad (PCBNEW (5.0.1-3-g963ef8bb5)) date Thursday, 21 May 2020 at 20:41:20*
%MOMM*%
%LPD*%
G01*
G04 APERTURE LIST*
%ADD10C,0.120000*%
%ADD11C,0.150000*%
G04 APERTURE END LIST*
D10*
G04 #@! TO.C,U1*
X102350000Y-75580000D02*
X182630000Y-75580000D01*
X182630000Y-75580000D02*
X182630000Y-111860000D01*
X182630000Y-111860000D02*
X103150000Y-111860000D01*
X102350000Y-111860000D02*
X102350000Y-75580000D01*
X102360000Y-111860000D02*
X103150000Y-111860000D01*
X108990000Y-112220000D02*
X111990000Y-112220000D01*
X110690000Y-101220000D02*
X174190000Y-101220000D01*
X110190280Y-86720680D02*
X110190280Y-100720000D01*
X174190660Y-86220000D02*
X110690000Y-86220000D01*
X174690000Y-100720000D02*
X174690000Y-86720000D01*
X174690000Y-100720000D02*
G75*
G02X174190000Y-101220000I-500000J0D01*
G01*
X174190660Y-86220300D02*
G75*
G02X174691040Y-86720680I0J-500380D01*
G01*
X110190280Y-86720680D02*
G75*
G02X110690660Y-86220300I500380J0D01*
G01*
X110690660Y-101221540D02*
G75*
G02X110190280Y-100721160I0J500380D01*
G01*
X105490000Y-106220000D02*
X178490000Y-106220000D01*
X178490000Y-106220000D02*
X178490000Y-81220000D01*
X178490000Y-81220000D02*
X105490000Y-81220000D01*
X105490000Y-81220000D02*
X105490000Y-106220000D01*
D11*
X105431904Y-112482380D02*
X105431904Y-113291904D01*
X105384285Y-113387142D01*
X105336666Y-113434761D01*
X105241428Y-113482380D01*
X105050952Y-113482380D01*
X104955714Y-113434761D01*
X104908095Y-113387142D01*
X104860476Y-113291904D01*
X104860476Y-112482380D01*
X103860476Y-113482380D02*
X104431904Y-113482380D01*
X104146190Y-113482380D02*
X104146190Y-112482380D01*
X104241428Y-112625238D01*
X104336666Y-112720476D01*
X104431904Y-112768095D01*
G04 #@! TD*
M02*
