G04 #@! TF.GenerationSoftware,KiCad,Pcbnew,(5.0.1-3-g963ef8bb5)*
G04 #@! TF.CreationDate,2020-05-21T20:41:19+01:00*
G04 #@! TF.ProjectId,Acorn_POST,41636F726E5F504F53542E6B69636164,rev?*
G04 #@! TF.SameCoordinates,Original*
G04 #@! TF.FileFunction,Copper,L1,Top,Signal*
G04 #@! TF.FilePolarity,Positive*
%FSLAX46Y46*%
G04 Gerber Fmt 4.6, Leading zero omitted, Abs format (unit mm)*
G04 Created by KiCad (PCBNEW (5.0.1-3-g963ef8bb5)) date Thursday, 21 May 2020 at 20:41:19*
%MOMM*%
%LPD*%
G01*
G04 APERTURE LIST*
G04 #@! TA.AperFunction,ComponentPad*
%ADD10C,1.524000*%
G04 #@! TD*
G04 #@! TA.AperFunction,ComponentPad*
%ADD11C,1.600000*%
G04 #@! TD*
G04 #@! TA.AperFunction,ComponentPad*
%ADD12O,1.700000X1.700000*%
G04 #@! TD*
G04 #@! TA.AperFunction,ComponentPad*
%ADD13R,1.700000X1.700000*%
G04 #@! TD*
G04 #@! TA.AperFunction,ComponentPad*
%ADD14R,1.800000X2.600000*%
G04 #@! TD*
G04 #@! TA.AperFunction,ComponentPad*
%ADD15O,1.800000X2.600000*%
G04 #@! TD*
G04 #@! TA.AperFunction,ComponentPad*
%ADD16C,3.000000*%
G04 #@! TD*
G04 #@! TA.AperFunction,ComponentPad*
%ADD17O,1.600000X1.600000*%
G04 #@! TD*
G04 #@! TA.AperFunction,ComponentPad*
%ADD18C,1.440000*%
G04 #@! TD*
G04 #@! TA.AperFunction,ComponentPad*
%ADD19R,1.600000X1.600000*%
G04 #@! TD*
G04 #@! TA.AperFunction,ComponentPad*
%ADD20C,1.500000*%
G04 #@! TD*
G04 #@! TA.AperFunction,Conductor*
%ADD21C,0.300000*%
G04 #@! TD*
G04 #@! TA.AperFunction,Conductor*
%ADD22C,0.250000*%
G04 #@! TD*
G04 #@! TA.AperFunction,Conductor*
%ADD23C,0.500000*%
G04 #@! TD*
G04 #@! TA.AperFunction,Conductor*
%ADD24C,0.600000*%
G04 #@! TD*
G04 #@! TA.AperFunction,Conductor*
%ADD25C,0.254000*%
G04 #@! TD*
G04 APERTURE END LIST*
D10*
G04 #@! TO.P,U2,40*
G04 #@! TO.N,Net-(J1-Pad6)*
X110490000Y-80264000D03*
G04 #@! TO.P,U2,39*
G04 #@! TO.N,Net-(J1-Pad1)*
X113030000Y-80264000D03*
G04 #@! TO.P,U2,38*
G04 #@! TO.N,Net-(U2-Pad38)*
X115570000Y-80264000D03*
G04 #@! TO.P,U2,37*
G04 #@! TO.N,Net-(U2-Pad37)*
X118110000Y-80264000D03*
G04 #@! TO.P,U2,36*
G04 #@! TO.N,Net-(U2-Pad36)*
X120650000Y-80264000D03*
G04 #@! TO.P,U2,35*
G04 #@! TO.N,Net-(U2-Pad35)*
X123190000Y-80264000D03*
G04 #@! TO.P,U2,34*
G04 #@! TO.N,Net-(U2-Pad34)*
X125730000Y-80264000D03*
G04 #@! TO.P,U2,33*
G04 #@! TO.N,Net-(U2-Pad33)*
X128270000Y-80264000D03*
G04 #@! TO.P,U2,32*
G04 #@! TO.N,Net-(U2-Pad32)*
X130810000Y-80264000D03*
G04 #@! TO.P,U2,31*
G04 #@! TO.N,Net-(U2-Pad31)*
X133350000Y-80264000D03*
G04 #@! TO.P,U2,30*
G04 #@! TO.N,Net-(U2-Pad30)*
X135890000Y-80264000D03*
G04 #@! TO.P,U2,29*
G04 #@! TO.N,Net-(J1-Pad4)*
X138430000Y-80264000D03*
G04 #@! TO.P,U2,28*
G04 #@! TO.N,Net-(J1-Pad3)*
X140970000Y-80264000D03*
G04 #@! TO.P,U2,27*
G04 #@! TO.N,Net-(U2-Pad27)*
X143510000Y-80264000D03*
G04 #@! TO.P,U2,26*
G04 #@! TO.N,Net-(U2-Pad26)*
X146050000Y-80264000D03*
G04 #@! TO.P,U2,25*
G04 #@! TO.N,Net-(U2-Pad25)*
X148590000Y-80264000D03*
G04 #@! TO.P,U2,24*
G04 #@! TO.N,Net-(U2-Pad24)*
X151130000Y-80264000D03*
G04 #@! TO.P,U2,23*
G04 #@! TO.N,Net-(U2-Pad23)*
X153670000Y-80264000D03*
G04 #@! TO.P,U2,22*
G04 #@! TO.N,Net-(U2-Pad22)*
X156210000Y-80264000D03*
G04 #@! TO.P,U2,21*
G04 #@! TO.N,Net-(U2-Pad21)*
X158750000Y-80264000D03*
G04 #@! TO.P,U2,20*
G04 #@! TO.N,Net-(U2-Pad20)*
X158750000Y-105664000D03*
G04 #@! TO.P,U2,19*
G04 #@! TO.N,Net-(U2-Pad19)*
X156210000Y-105664000D03*
G04 #@! TO.P,U2,18*
G04 #@! TO.N,Net-(U2-Pad18)*
X153670000Y-105664000D03*
G04 #@! TO.P,U2,17*
G04 #@! TO.N,Net-(U2-Pad17)*
X151130000Y-105664000D03*
G04 #@! TO.P,U2,16*
G04 #@! TO.N,Net-(U2-Pad16)*
X148590000Y-105664000D03*
G04 #@! TO.P,U2,15*
G04 #@! TO.N,Net-(U2-Pad15)*
X146050000Y-105664000D03*
G04 #@! TO.P,U2,14*
G04 #@! TO.N,Net-(U1-Pad14)*
X143510000Y-105664000D03*
G04 #@! TO.P,U2,13*
G04 #@! TO.N,Net-(U1-Pad13)*
X140970000Y-105664000D03*
G04 #@! TO.P,U2,12*
G04 #@! TO.N,Net-(U1-Pad12)*
X138430000Y-105664000D03*
G04 #@! TO.P,U2,11*
G04 #@! TO.N,Net-(U1-Pad11)*
X135890000Y-105664000D03*
G04 #@! TO.P,U2,10*
G04 #@! TO.N,Net-(U2-Pad10)*
X133350000Y-105664000D03*
G04 #@! TO.P,U2,9*
G04 #@! TO.N,Net-(U2-Pad9)*
X130810000Y-105664000D03*
G04 #@! TO.P,U2,8*
G04 #@! TO.N,Net-(U2-Pad8)*
X128270000Y-105664000D03*
G04 #@! TO.P,U2,7*
G04 #@! TO.N,Net-(U2-Pad7)*
X125730000Y-105664000D03*
G04 #@! TO.P,U2,6*
G04 #@! TO.N,Net-(U1-Pad6)*
X123190000Y-105664000D03*
G04 #@! TO.P,U2,5*
G04 #@! TO.N,Net-(U1-Pad4)*
X120650000Y-105664000D03*
G04 #@! TO.P,U2,4*
G04 #@! TO.N,Net-(U2-Pad4)*
X118110000Y-105664000D03*
G04 #@! TO.P,U2,3*
G04 #@! TO.N,Net-(U2-Pad3)*
X115570000Y-105664000D03*
G04 #@! TO.P,U2,2*
G04 #@! TO.N,Net-(J1-Pad1)*
X113030000Y-105664000D03*
G04 #@! TO.P,U2,1*
G04 #@! TO.N,Net-(J1-Pad6)*
X110490000Y-105664000D03*
G04 #@! TD*
D11*
G04 #@! TO.P,C1,2*
G04 #@! TO.N,Net-(C1-Pad2)*
X175180000Y-95250000D03*
G04 #@! TO.P,C1,1*
G04 #@! TO.N,Net-(C1-Pad1)*
X170180000Y-95250000D03*
G04 #@! TD*
D12*
G04 #@! TO.P,J1,6*
G04 #@! TO.N,Net-(J1-Pad6)*
X105490000Y-86995000D03*
G04 #@! TO.P,J1,5*
G04 #@! TO.N,Net-(J1-Pad5)*
X105490000Y-89535000D03*
G04 #@! TO.P,J1,4*
G04 #@! TO.N,Net-(J1-Pad4)*
X105490000Y-92075000D03*
G04 #@! TO.P,J1,3*
G04 #@! TO.N,Net-(J1-Pad3)*
X105490000Y-94615000D03*
G04 #@! TO.P,J1,2*
G04 #@! TO.N,Net-(J1-Pad2)*
X105490000Y-97155000D03*
D13*
G04 #@! TO.P,J1,1*
G04 #@! TO.N,Net-(J1-Pad1)*
X105490000Y-99695000D03*
G04 #@! TD*
D14*
G04 #@! TO.P,U1,1*
G04 #@! TO.N,Net-(J1-Pad6)*
X110490000Y-109220000D03*
D15*
G04 #@! TO.P,U1,2*
G04 #@! TO.N,Net-(J1-Pad1)*
X113030000Y-109220000D03*
G04 #@! TO.P,U1,3*
G04 #@! TO.N,Net-(RV1-Pad2)*
X115570000Y-109220000D03*
G04 #@! TO.P,U1,4*
G04 #@! TO.N,Net-(U1-Pad4)*
X118110000Y-109220000D03*
G04 #@! TO.P,U1,5*
G04 #@! TO.N,Net-(J1-Pad6)*
X120650000Y-109220000D03*
G04 #@! TO.P,U1,6*
G04 #@! TO.N,Net-(U1-Pad6)*
X123190000Y-109220000D03*
G04 #@! TO.P,U1,7*
G04 #@! TO.N,Net-(U1-Pad7)*
X125730000Y-109220000D03*
G04 #@! TO.P,U1,8*
G04 #@! TO.N,Net-(U1-Pad8)*
X128270000Y-109220000D03*
G04 #@! TO.P,U1,9*
G04 #@! TO.N,Net-(U1-Pad9)*
X130810000Y-109220000D03*
G04 #@! TO.P,U1,10*
G04 #@! TO.N,Net-(U1-Pad10)*
X133350000Y-109220000D03*
G04 #@! TO.P,U1,11*
G04 #@! TO.N,Net-(U1-Pad11)*
X135890000Y-109220000D03*
G04 #@! TO.P,U1,12*
G04 #@! TO.N,Net-(U1-Pad12)*
X138430000Y-109220000D03*
G04 #@! TO.P,U1,13*
G04 #@! TO.N,Net-(U1-Pad13)*
X140970000Y-109220000D03*
G04 #@! TO.P,U1,14*
G04 #@! TO.N,Net-(U1-Pad14)*
X143510000Y-109220000D03*
G04 #@! TO.P,U1,15*
G04 #@! TO.N,Net-(R1-Pad2)*
X146050000Y-109220000D03*
G04 #@! TO.P,U1,16*
G04 #@! TO.N,Net-(J1-Pad6)*
X148590000Y-109220000D03*
D16*
G04 #@! TO.P,U1,*
G04 #@! TO.N,*
X104990900Y-109220000D03*
X104990900Y-78219300D03*
X179989480Y-78219300D03*
X179990000Y-109220000D03*
G04 #@! TD*
D11*
G04 #@! TO.P,R1,1*
G04 #@! TO.N,Net-(J1-Pad1)*
X166370000Y-93980000D03*
D17*
G04 #@! TO.P,R1,2*
G04 #@! TO.N,Net-(R1-Pad2)*
X166370000Y-104140000D03*
G04 #@! TD*
D11*
G04 #@! TO.P,R2,1*
G04 #@! TO.N,Net-(R2-Pad1)*
X166370000Y-88900000D03*
D17*
G04 #@! TO.P,R2,2*
G04 #@! TO.N,Net-(C1-Pad1)*
X168910000Y-88900000D03*
G04 #@! TD*
G04 #@! TO.P,R3,2*
G04 #@! TO.N,Net-(R3-Pad2)*
X175260000Y-88900000D03*
D11*
G04 #@! TO.P,R3,1*
G04 #@! TO.N,Net-(C1-Pad2)*
X172720000Y-88900000D03*
G04 #@! TD*
D18*
G04 #@! TO.P,RV1,3*
G04 #@! TO.N,Net-(J1-Pad6)*
X175260000Y-105410000D03*
G04 #@! TO.P,RV1,2*
G04 #@! TO.N,Net-(RV1-Pad2)*
X172720000Y-102870000D03*
G04 #@! TO.P,RV1,1*
G04 #@! TO.N,Net-(J1-Pad1)*
X175260000Y-100330000D03*
G04 #@! TD*
D19*
G04 #@! TO.P,U3,1*
G04 #@! TO.N,Net-(R2-Pad1)*
X166370000Y-82550000D03*
D17*
G04 #@! TO.P,U3,8*
G04 #@! TO.N,N/C*
X181610000Y-74930000D03*
G04 #@! TO.P,U3,2*
G04 #@! TO.N,Net-(C1-Pad1)*
X168910000Y-82550000D03*
G04 #@! TO.P,U3,9*
G04 #@! TO.N,N/C*
X179070000Y-74930000D03*
G04 #@! TO.P,U3,3*
G04 #@! TO.N,Net-(C1-Pad2)*
X171450000Y-82550000D03*
G04 #@! TO.P,U3,10*
G04 #@! TO.N,N/C*
X176530000Y-74930000D03*
G04 #@! TO.P,U3,4*
G04 #@! TO.N,Net-(R3-Pad2)*
X173990000Y-82550000D03*
G04 #@! TO.P,U3,11*
G04 #@! TO.N,N/C*
X173990000Y-74930000D03*
G04 #@! TO.P,U3,5*
G04 #@! TO.N,Net-(R3-Pad2)*
X176530000Y-82550000D03*
G04 #@! TO.P,U3,12*
G04 #@! TO.N,N/C*
X171450000Y-74930000D03*
G04 #@! TO.P,U3,6*
G04 #@! TO.N,Net-(U2-Pad27)*
X179070000Y-82550000D03*
G04 #@! TO.P,U3,13*
G04 #@! TO.N,N/C*
X168910000Y-74930000D03*
G04 #@! TO.P,U3,7*
G04 #@! TO.N,Net-(J1-Pad6)*
X181610000Y-82550000D03*
G04 #@! TO.P,U3,14*
G04 #@! TO.N,Net-(J1-Pad1)*
X166370000Y-74930000D03*
G04 #@! TD*
D20*
G04 #@! TO.P,Y1,1*
G04 #@! TO.N,Net-(R2-Pad1)*
X179070000Y-93980000D03*
G04 #@! TO.P,Y1,2*
G04 #@! TO.N,Net-(R3-Pad2)*
X179070000Y-90180000D03*
G04 #@! TD*
D21*
G04 #@! TO.N,Net-(U1-Pad4)*
X118110000Y-108204000D02*
X120650000Y-105664000D01*
X118110000Y-109220000D02*
X118110000Y-108204000D01*
G04 #@! TO.N,Net-(U1-Pad6)*
X123190000Y-105664000D02*
X123190000Y-109220000D01*
G04 #@! TO.N,Net-(U1-Pad11)*
X135890000Y-105664000D02*
X135890000Y-109220000D01*
G04 #@! TO.N,Net-(U1-Pad12)*
X138430000Y-105664000D02*
X138430000Y-109220000D01*
G04 #@! TO.N,Net-(U1-Pad13)*
X140970000Y-105664000D02*
X140970000Y-109220000D01*
G04 #@! TO.N,Net-(U1-Pad14)*
X143510000Y-105664000D02*
X143510000Y-109220000D01*
D22*
G04 #@! TO.N,Net-(C1-Pad1)*
X168910000Y-92710000D02*
X168910000Y-88900000D01*
D21*
X168910000Y-82550000D02*
X168910000Y-88900000D01*
X168910000Y-92710000D02*
X170180000Y-93980000D01*
X170180000Y-93980000D02*
X170180000Y-95250000D01*
G04 #@! TO.N,Net-(C1-Pad2)*
X171450000Y-82550000D02*
X171450000Y-87630000D01*
X171450000Y-87630000D02*
X172720000Y-88900000D01*
X172720000Y-91440000D02*
X175260000Y-93980000D01*
X172720000Y-88900000D02*
X172720000Y-91440000D01*
X175180000Y-94060000D02*
X175180000Y-95250000D01*
X175260000Y-93980000D02*
X175180000Y-94060000D01*
D23*
G04 #@! TO.N,Net-(J1-Pad1)*
X106426000Y-99695000D02*
X106680000Y-99949000D01*
X106680000Y-99314000D02*
X113030000Y-105664000D01*
X113030000Y-92710000D02*
X106680000Y-99060000D01*
X113030000Y-80264000D02*
X113030000Y-92710000D01*
X113030000Y-80264000D02*
X115824000Y-77470000D01*
X115824000Y-77470000D02*
X163830000Y-77470000D01*
X163830000Y-77470000D02*
X166370000Y-74930000D01*
X166370000Y-93980000D02*
X166370000Y-97790000D01*
X166370000Y-97790000D02*
X167640000Y-99060000D01*
X173990000Y-99060000D02*
X175260000Y-100330000D01*
X167640000Y-99060000D02*
X173990000Y-99060000D01*
X163830000Y-77470000D02*
X163830000Y-92710000D01*
X163830000Y-92710000D02*
X165100000Y-93980000D01*
X165100000Y-93980000D02*
X166370000Y-93980000D01*
X105490000Y-99695000D02*
X106426000Y-99695000D01*
X113030000Y-105664000D02*
X113030000Y-109220000D01*
D24*
G04 #@! TO.N,Net-(J1-Pad6)*
X120650000Y-109220000D02*
X120650000Y-111760000D01*
X110490000Y-109620000D02*
X110490000Y-109220000D01*
X112630000Y-111760000D02*
X110490000Y-109620000D01*
X120650000Y-111760000D02*
X112630000Y-111760000D01*
X181610000Y-104140000D02*
X180340000Y-105410000D01*
X180340000Y-105410000D02*
X175260000Y-105410000D01*
X110490000Y-83820000D02*
X107315000Y-86995000D01*
X107315000Y-86995000D02*
X105490000Y-86995000D01*
X110490000Y-80264000D02*
X110490000Y-83820000D01*
X101600000Y-104140000D02*
X103124000Y-105664000D01*
X101600000Y-88900000D02*
X101600000Y-104140000D01*
X103505000Y-86995000D02*
X101600000Y-88900000D01*
X105490000Y-86995000D02*
X103505000Y-86995000D01*
X103124000Y-105664000D02*
X110490000Y-105664000D01*
X110490000Y-105664000D02*
X110490000Y-109220000D01*
X175260000Y-105410000D02*
X171450000Y-109220000D01*
X171450000Y-109220000D02*
X148590000Y-109220000D01*
X148590000Y-109220000D02*
X148429913Y-109220000D01*
X147950000Y-111760000D02*
X146685000Y-111760000D01*
X148590000Y-109220000D02*
X148590000Y-111120000D01*
X148590000Y-111120000D02*
X147950000Y-111760000D01*
X146685000Y-111760000D02*
X120650000Y-111760000D01*
X147320000Y-111760000D02*
X146685000Y-111760000D01*
X181610000Y-82550000D02*
X181610000Y-104140000D01*
D22*
G04 #@! TO.N,Net-(R1-Pad2)*
X146050000Y-108820000D02*
X146050000Y-109220000D01*
X146050000Y-107670000D02*
X146050000Y-109220000D01*
X164016401Y-107130009D02*
X146589991Y-107130009D01*
X146589991Y-107130009D02*
X146050000Y-107670000D01*
X166370000Y-104140000D02*
X164016401Y-107130009D01*
D21*
G04 #@! TO.N,Net-(R2-Pad1)*
X166370000Y-82550000D02*
X166370000Y-88900000D01*
G04 #@! TO.N,Net-(R3-Pad2)*
X175260000Y-86360000D02*
X175260000Y-88900000D01*
X176540000Y-90180000D02*
X179070000Y-90180000D01*
X175260000Y-88900000D02*
X176540000Y-90180000D01*
X175260000Y-86360000D02*
X176530000Y-85090000D01*
X176530000Y-85090000D02*
X176530000Y-82550000D01*
X173990000Y-82550000D02*
X176530000Y-82550000D01*
D22*
G04 #@! TO.N,Net-(RV1-Pad2)*
X116840000Y-107550000D02*
X116840000Y-105325238D01*
D21*
X119258238Y-102870000D02*
X116840000Y-105288238D01*
X116840000Y-105288238D02*
X116840000Y-105325238D01*
X172720000Y-102870000D02*
X119258238Y-102870000D01*
X116840000Y-105288238D02*
X116840000Y-107550000D01*
X115570000Y-108820000D02*
X115570000Y-109220000D01*
X116840000Y-107550000D02*
X115570000Y-108820000D01*
G04 #@! TD*
D25*
G04 #@! TO.N,Net-(J1-Pad6)*
G36*
X165335423Y-73895423D02*
X165018260Y-74370091D01*
X164906887Y-74930000D01*
X164941983Y-75106438D01*
X163463422Y-76585000D01*
X115911161Y-76585000D01*
X115824000Y-76567663D01*
X115736839Y-76585000D01*
X115736835Y-76585000D01*
X115478690Y-76636348D01*
X115259845Y-76782576D01*
X115259844Y-76782577D01*
X115185951Y-76831951D01*
X115136577Y-76905844D01*
X113175422Y-78867000D01*
X112752119Y-78867000D01*
X112238663Y-79079680D01*
X111845680Y-79472663D01*
X111766572Y-79663647D01*
X111712397Y-79532857D01*
X111470213Y-79463392D01*
X110669605Y-80264000D01*
X111470213Y-81064608D01*
X111712397Y-80995143D01*
X111762535Y-80854607D01*
X111845680Y-81055337D01*
X112145000Y-81354657D01*
X112145001Y-92343420D01*
X106922319Y-97566103D01*
X107004092Y-97155000D01*
X106888839Y-96575582D01*
X106560625Y-96084375D01*
X106262239Y-95885000D01*
X106560625Y-95685625D01*
X106888839Y-95194418D01*
X107004092Y-94615000D01*
X106888839Y-94035582D01*
X106560625Y-93544375D01*
X106262239Y-93345000D01*
X106560625Y-93145625D01*
X106888839Y-92654418D01*
X107004092Y-92075000D01*
X106888839Y-91495582D01*
X106560625Y-91004375D01*
X106262239Y-90805000D01*
X106560625Y-90605625D01*
X106888839Y-90114418D01*
X107004092Y-89535000D01*
X106888839Y-88955582D01*
X106560625Y-88464375D01*
X106241522Y-88251157D01*
X106371358Y-88190183D01*
X106761645Y-87761924D01*
X106931476Y-87351890D01*
X106810155Y-87122000D01*
X105617000Y-87122000D01*
X105617000Y-87142000D01*
X105363000Y-87142000D01*
X105363000Y-87122000D01*
X104169845Y-87122000D01*
X104048524Y-87351890D01*
X104218355Y-87761924D01*
X104608642Y-88190183D01*
X104738478Y-88251157D01*
X104419375Y-88464375D01*
X104091161Y-88955582D01*
X103975908Y-89535000D01*
X104091161Y-90114418D01*
X104419375Y-90605625D01*
X104717761Y-90805000D01*
X104419375Y-91004375D01*
X104091161Y-91495582D01*
X103975908Y-92075000D01*
X104091161Y-92654418D01*
X104419375Y-93145625D01*
X104717761Y-93345000D01*
X104419375Y-93544375D01*
X104091161Y-94035582D01*
X103975908Y-94615000D01*
X104091161Y-95194418D01*
X104419375Y-95685625D01*
X104717761Y-95885000D01*
X104419375Y-96084375D01*
X104091161Y-96575582D01*
X103975908Y-97155000D01*
X104091161Y-97734418D01*
X104419375Y-98225625D01*
X104437619Y-98237816D01*
X104392235Y-98246843D01*
X104182191Y-98387191D01*
X104041843Y-98597235D01*
X103992560Y-98845000D01*
X103992560Y-100545000D01*
X104041843Y-100792765D01*
X104182191Y-101002809D01*
X104392235Y-101143157D01*
X104640000Y-101192440D01*
X106340000Y-101192440D01*
X106587765Y-101143157D01*
X106797809Y-101002809D01*
X106925752Y-100811330D01*
X110384932Y-104270510D01*
X110142632Y-104282638D01*
X109758857Y-104441603D01*
X109689392Y-104683787D01*
X110490000Y-105484395D01*
X110504143Y-105470253D01*
X110683748Y-105649858D01*
X110669605Y-105664000D01*
X111470213Y-106464608D01*
X111712397Y-106395143D01*
X111762535Y-106254607D01*
X111845680Y-106455337D01*
X112145000Y-106754657D01*
X112145001Y-107565209D01*
X111976888Y-107677538D01*
X111928327Y-107560301D01*
X111749698Y-107381673D01*
X111516309Y-107285000D01*
X110775750Y-107285000D01*
X110617000Y-107443750D01*
X110617000Y-109093000D01*
X110637000Y-109093000D01*
X110637000Y-109347000D01*
X110617000Y-109347000D01*
X110617000Y-110996250D01*
X110775750Y-111155000D01*
X111516309Y-111155000D01*
X111749698Y-111058327D01*
X111928327Y-110879699D01*
X111976889Y-110762461D01*
X112431074Y-111065938D01*
X113030000Y-111185072D01*
X113628927Y-111065938D01*
X114136673Y-110726673D01*
X114300000Y-110482236D01*
X114463328Y-110726673D01*
X114971074Y-111065938D01*
X115570000Y-111185072D01*
X116168927Y-111065938D01*
X116676673Y-110726673D01*
X116840000Y-110482236D01*
X117003328Y-110726673D01*
X117511074Y-111065938D01*
X118110000Y-111185072D01*
X118708927Y-111065938D01*
X119216673Y-110726673D01*
X119391703Y-110464723D01*
X119654394Y-110795212D01*
X120179914Y-111086756D01*
X120285260Y-111111036D01*
X120523000Y-110990378D01*
X120523000Y-109347000D01*
X120503000Y-109347000D01*
X120503000Y-109093000D01*
X120523000Y-109093000D01*
X120523000Y-107449622D01*
X120285260Y-107328964D01*
X120179914Y-107353244D01*
X119935094Y-107489063D01*
X120365782Y-107058375D01*
X120372119Y-107061000D01*
X120927881Y-107061000D01*
X121441337Y-106848320D01*
X121834320Y-106455337D01*
X121920000Y-106248487D01*
X122005680Y-106455337D01*
X122398663Y-106848320D01*
X122405000Y-106850945D01*
X122405001Y-107498392D01*
X122083327Y-107713327D01*
X121908298Y-107975278D01*
X121645606Y-107644788D01*
X121120086Y-107353244D01*
X121014740Y-107328964D01*
X120777000Y-107449622D01*
X120777000Y-109093000D01*
X120797000Y-109093000D01*
X120797000Y-109347000D01*
X120777000Y-109347000D01*
X120777000Y-110990378D01*
X121014740Y-111111036D01*
X121120086Y-111086756D01*
X121645606Y-110795212D01*
X121908298Y-110464722D01*
X122083328Y-110726673D01*
X122591074Y-111065938D01*
X123190000Y-111185072D01*
X123788927Y-111065938D01*
X124296673Y-110726673D01*
X124460000Y-110482236D01*
X124623328Y-110726673D01*
X125131074Y-111065938D01*
X125730000Y-111185072D01*
X126328927Y-111065938D01*
X126836673Y-110726673D01*
X127000000Y-110482236D01*
X127163328Y-110726673D01*
X127671074Y-111065938D01*
X128270000Y-111185072D01*
X128868927Y-111065938D01*
X129376673Y-110726673D01*
X129540000Y-110482236D01*
X129703328Y-110726673D01*
X130211074Y-111065938D01*
X130810000Y-111185072D01*
X131408927Y-111065938D01*
X131916673Y-110726673D01*
X132080000Y-110482236D01*
X132243328Y-110726673D01*
X132751074Y-111065938D01*
X133350000Y-111185072D01*
X133948927Y-111065938D01*
X134456673Y-110726673D01*
X134620000Y-110482236D01*
X134783328Y-110726673D01*
X135291074Y-111065938D01*
X135890000Y-111185072D01*
X136488927Y-111065938D01*
X136996673Y-110726673D01*
X137160000Y-110482236D01*
X137323328Y-110726673D01*
X137831074Y-111065938D01*
X138430000Y-111185072D01*
X139028927Y-111065938D01*
X139536673Y-110726673D01*
X139700000Y-110482236D01*
X139863328Y-110726673D01*
X140371074Y-111065938D01*
X140970000Y-111185072D01*
X141568927Y-111065938D01*
X142076673Y-110726673D01*
X142240000Y-110482236D01*
X142403328Y-110726673D01*
X142911074Y-111065938D01*
X143510000Y-111185072D01*
X144108927Y-111065938D01*
X144616673Y-110726673D01*
X144780000Y-110482236D01*
X144943328Y-110726673D01*
X145451074Y-111065938D01*
X146050000Y-111185072D01*
X146648927Y-111065938D01*
X147156673Y-110726673D01*
X147331703Y-110464723D01*
X147594394Y-110795212D01*
X148119914Y-111086756D01*
X148225260Y-111111036D01*
X148463000Y-110990378D01*
X148463000Y-109347000D01*
X148717000Y-109347000D01*
X148717000Y-110990378D01*
X148954740Y-111111036D01*
X149060086Y-111086756D01*
X149585606Y-110795212D01*
X149959554Y-110324752D01*
X150125000Y-109747000D01*
X150125000Y-109347000D01*
X148717000Y-109347000D01*
X148463000Y-109347000D01*
X148443000Y-109347000D01*
X148443000Y-109093000D01*
X148463000Y-109093000D01*
X148463000Y-109073000D01*
X148717000Y-109073000D01*
X148717000Y-109093000D01*
X150125000Y-109093000D01*
X150125000Y-108795322D01*
X177855000Y-108795322D01*
X177855000Y-109644678D01*
X178180034Y-110429380D01*
X178780620Y-111029966D01*
X179565322Y-111355000D01*
X180414678Y-111355000D01*
X181199380Y-111029966D01*
X181799966Y-110429380D01*
X182125000Y-109644678D01*
X182125000Y-108795322D01*
X181799966Y-108010620D01*
X181199380Y-107410034D01*
X180414678Y-107085000D01*
X179565322Y-107085000D01*
X178780620Y-107410034D01*
X178180034Y-108010620D01*
X177855000Y-108795322D01*
X150125000Y-108795322D01*
X150125000Y-108693000D01*
X149959554Y-108115248D01*
X149780521Y-107890009D01*
X163986831Y-107890009D01*
X164108040Y-107899459D01*
X164208893Y-107866609D01*
X164312938Y-107845913D01*
X164351465Y-107820170D01*
X164395521Y-107805820D01*
X164476131Y-107736871D01*
X164564330Y-107677938D01*
X164631881Y-107576841D01*
X165589901Y-106359774D01*
X174489831Y-106359774D01*
X174554131Y-106597611D01*
X175062342Y-106777333D01*
X175600644Y-106748892D01*
X175965869Y-106597611D01*
X176030169Y-106359774D01*
X175260000Y-105589605D01*
X174489831Y-106359774D01*
X165589901Y-106359774D01*
X166210486Y-105571384D01*
X166228667Y-105575000D01*
X166511333Y-105575000D01*
X166929909Y-105491740D01*
X167348057Y-105212342D01*
X173892667Y-105212342D01*
X173921108Y-105750644D01*
X174072389Y-106115869D01*
X174310226Y-106180169D01*
X175080395Y-105410000D01*
X175439605Y-105410000D01*
X176209774Y-106180169D01*
X176447611Y-106115869D01*
X176627333Y-105607658D01*
X176598892Y-105069356D01*
X176447611Y-104704131D01*
X176209774Y-104639831D01*
X175439605Y-105410000D01*
X175080395Y-105410000D01*
X174310226Y-104639831D01*
X174072389Y-104704131D01*
X173892667Y-105212342D01*
X167348057Y-105212342D01*
X167404577Y-105174577D01*
X167721740Y-104699909D01*
X167769415Y-104460226D01*
X174489831Y-104460226D01*
X175260000Y-105230395D01*
X176030169Y-104460226D01*
X175965869Y-104222389D01*
X175457658Y-104042667D01*
X174919356Y-104071108D01*
X174554131Y-104222389D01*
X174489831Y-104460226D01*
X167769415Y-104460226D01*
X167833113Y-104140000D01*
X167736640Y-103655000D01*
X171588740Y-103655000D01*
X171952454Y-104018714D01*
X172450474Y-104225000D01*
X172989526Y-104225000D01*
X173487546Y-104018714D01*
X173868714Y-103637546D01*
X174075000Y-103139526D01*
X174075000Y-102600474D01*
X173868714Y-102102454D01*
X173487546Y-101721286D01*
X172989526Y-101515000D01*
X172450474Y-101515000D01*
X171952454Y-101721286D01*
X171588740Y-102085000D01*
X119335550Y-102085000D01*
X119258238Y-102069622D01*
X119180926Y-102085000D01*
X119180922Y-102085000D01*
X118951946Y-102130546D01*
X118757829Y-102260251D01*
X118757827Y-102260253D01*
X118692285Y-102304047D01*
X118648491Y-102369589D01*
X116449869Y-104568212D01*
X116361337Y-104479680D01*
X115847881Y-104267000D01*
X115292119Y-104267000D01*
X114778663Y-104479680D01*
X114385680Y-104872663D01*
X114300000Y-105079513D01*
X114214320Y-104872663D01*
X113821337Y-104479680D01*
X113307881Y-104267000D01*
X112884579Y-104267000D01*
X107804578Y-99187000D01*
X113594156Y-93397423D01*
X113668049Y-93348049D01*
X113717425Y-93274154D01*
X113863651Y-93055311D01*
X113863652Y-93055310D01*
X113915000Y-92797165D01*
X113915000Y-92797161D01*
X113932337Y-92710001D01*
X113915000Y-92622841D01*
X113915000Y-81354657D01*
X114214320Y-81055337D01*
X114300000Y-80848487D01*
X114385680Y-81055337D01*
X114778663Y-81448320D01*
X115292119Y-81661000D01*
X115847881Y-81661000D01*
X116361337Y-81448320D01*
X116754320Y-81055337D01*
X116840000Y-80848487D01*
X116925680Y-81055337D01*
X117318663Y-81448320D01*
X117832119Y-81661000D01*
X118387881Y-81661000D01*
X118901337Y-81448320D01*
X119294320Y-81055337D01*
X119380000Y-80848487D01*
X119465680Y-81055337D01*
X119858663Y-81448320D01*
X120372119Y-81661000D01*
X120927881Y-81661000D01*
X121441337Y-81448320D01*
X121834320Y-81055337D01*
X121920000Y-80848487D01*
X122005680Y-81055337D01*
X122398663Y-81448320D01*
X122912119Y-81661000D01*
X123467881Y-81661000D01*
X123981337Y-81448320D01*
X124374320Y-81055337D01*
X124460000Y-80848487D01*
X124545680Y-81055337D01*
X124938663Y-81448320D01*
X125452119Y-81661000D01*
X126007881Y-81661000D01*
X126521337Y-81448320D01*
X126914320Y-81055337D01*
X127000000Y-80848487D01*
X127085680Y-81055337D01*
X127478663Y-81448320D01*
X127992119Y-81661000D01*
X128547881Y-81661000D01*
X129061337Y-81448320D01*
X129454320Y-81055337D01*
X129540000Y-80848487D01*
X129625680Y-81055337D01*
X130018663Y-81448320D01*
X130532119Y-81661000D01*
X131087881Y-81661000D01*
X131601337Y-81448320D01*
X131994320Y-81055337D01*
X132080000Y-80848487D01*
X132165680Y-81055337D01*
X132558663Y-81448320D01*
X133072119Y-81661000D01*
X133627881Y-81661000D01*
X134141337Y-81448320D01*
X134534320Y-81055337D01*
X134620000Y-80848487D01*
X134705680Y-81055337D01*
X135098663Y-81448320D01*
X135612119Y-81661000D01*
X136167881Y-81661000D01*
X136681337Y-81448320D01*
X137074320Y-81055337D01*
X137160000Y-80848487D01*
X137245680Y-81055337D01*
X137638663Y-81448320D01*
X138152119Y-81661000D01*
X138707881Y-81661000D01*
X139221337Y-81448320D01*
X139614320Y-81055337D01*
X139700000Y-80848487D01*
X139785680Y-81055337D01*
X140178663Y-81448320D01*
X140692119Y-81661000D01*
X141247881Y-81661000D01*
X141761337Y-81448320D01*
X142154320Y-81055337D01*
X142240000Y-80848487D01*
X142325680Y-81055337D01*
X142718663Y-81448320D01*
X143232119Y-81661000D01*
X143787881Y-81661000D01*
X144301337Y-81448320D01*
X144694320Y-81055337D01*
X144780000Y-80848487D01*
X144865680Y-81055337D01*
X145258663Y-81448320D01*
X145772119Y-81661000D01*
X146327881Y-81661000D01*
X146841337Y-81448320D01*
X147234320Y-81055337D01*
X147320000Y-80848487D01*
X147405680Y-81055337D01*
X147798663Y-81448320D01*
X148312119Y-81661000D01*
X148867881Y-81661000D01*
X149381337Y-81448320D01*
X149774320Y-81055337D01*
X149860000Y-80848487D01*
X149945680Y-81055337D01*
X150338663Y-81448320D01*
X150852119Y-81661000D01*
X151407881Y-81661000D01*
X151921337Y-81448320D01*
X152314320Y-81055337D01*
X152400000Y-80848487D01*
X152485680Y-81055337D01*
X152878663Y-81448320D01*
X153392119Y-81661000D01*
X153947881Y-81661000D01*
X154461337Y-81448320D01*
X154854320Y-81055337D01*
X154940000Y-80848487D01*
X155025680Y-81055337D01*
X155418663Y-81448320D01*
X155932119Y-81661000D01*
X156487881Y-81661000D01*
X157001337Y-81448320D01*
X157394320Y-81055337D01*
X157480000Y-80848487D01*
X157565680Y-81055337D01*
X157958663Y-81448320D01*
X158472119Y-81661000D01*
X159027881Y-81661000D01*
X159541337Y-81448320D01*
X159934320Y-81055337D01*
X160147000Y-80541881D01*
X160147000Y-79986119D01*
X159934320Y-79472663D01*
X159541337Y-79079680D01*
X159027881Y-78867000D01*
X158472119Y-78867000D01*
X157958663Y-79079680D01*
X157565680Y-79472663D01*
X157480000Y-79679513D01*
X157394320Y-79472663D01*
X157001337Y-79079680D01*
X156487881Y-78867000D01*
X155932119Y-78867000D01*
X155418663Y-79079680D01*
X155025680Y-79472663D01*
X154940000Y-79679513D01*
X154854320Y-79472663D01*
X154461337Y-79079680D01*
X153947881Y-78867000D01*
X153392119Y-78867000D01*
X152878663Y-79079680D01*
X152485680Y-79472663D01*
X152400000Y-79679513D01*
X152314320Y-79472663D01*
X151921337Y-79079680D01*
X151407881Y-78867000D01*
X150852119Y-78867000D01*
X150338663Y-79079680D01*
X149945680Y-79472663D01*
X149860000Y-79679513D01*
X149774320Y-79472663D01*
X149381337Y-79079680D01*
X148867881Y-78867000D01*
X148312119Y-78867000D01*
X147798663Y-79079680D01*
X147405680Y-79472663D01*
X147320000Y-79679513D01*
X147234320Y-79472663D01*
X146841337Y-79079680D01*
X146327881Y-78867000D01*
X145772119Y-78867000D01*
X145258663Y-79079680D01*
X144865680Y-79472663D01*
X144780000Y-79679513D01*
X144694320Y-79472663D01*
X144301337Y-79079680D01*
X143787881Y-78867000D01*
X143232119Y-78867000D01*
X142718663Y-79079680D01*
X142325680Y-79472663D01*
X142240000Y-79679513D01*
X142154320Y-79472663D01*
X141761337Y-79079680D01*
X141247881Y-78867000D01*
X140692119Y-78867000D01*
X140178663Y-79079680D01*
X139785680Y-79472663D01*
X139700000Y-79679513D01*
X139614320Y-79472663D01*
X139221337Y-79079680D01*
X138707881Y-78867000D01*
X138152119Y-78867000D01*
X137638663Y-79079680D01*
X137245680Y-79472663D01*
X137160000Y-79679513D01*
X137074320Y-79472663D01*
X136681337Y-79079680D01*
X136167881Y-78867000D01*
X135612119Y-78867000D01*
X135098663Y-79079680D01*
X134705680Y-79472663D01*
X134620000Y-79679513D01*
X134534320Y-79472663D01*
X134141337Y-79079680D01*
X133627881Y-78867000D01*
X133072119Y-78867000D01*
X132558663Y-79079680D01*
X132165680Y-79472663D01*
X132080000Y-79679513D01*
X131994320Y-79472663D01*
X131601337Y-79079680D01*
X131087881Y-78867000D01*
X130532119Y-78867000D01*
X130018663Y-79079680D01*
X129625680Y-79472663D01*
X129540000Y-79679513D01*
X129454320Y-79472663D01*
X129061337Y-79079680D01*
X128547881Y-78867000D01*
X127992119Y-78867000D01*
X127478663Y-79079680D01*
X127085680Y-79472663D01*
X127000000Y-79679513D01*
X126914320Y-79472663D01*
X126521337Y-79079680D01*
X126007881Y-78867000D01*
X125452119Y-78867000D01*
X124938663Y-79079680D01*
X124545680Y-79472663D01*
X124460000Y-79679513D01*
X124374320Y-79472663D01*
X123981337Y-79079680D01*
X123467881Y-78867000D01*
X122912119Y-78867000D01*
X122398663Y-79079680D01*
X122005680Y-79472663D01*
X121920000Y-79679513D01*
X121834320Y-79472663D01*
X121441337Y-79079680D01*
X120927881Y-78867000D01*
X120372119Y-78867000D01*
X119858663Y-79079680D01*
X119465680Y-79472663D01*
X119380000Y-79679513D01*
X119294320Y-79472663D01*
X118901337Y-79079680D01*
X118387881Y-78867000D01*
X117832119Y-78867000D01*
X117318663Y-79079680D01*
X116925680Y-79472663D01*
X116840000Y-79679513D01*
X116754320Y-79472663D01*
X116361337Y-79079680D01*
X115847881Y-78867000D01*
X115678579Y-78867000D01*
X116190579Y-78355000D01*
X162945000Y-78355000D01*
X162945001Y-92622834D01*
X162927663Y-92710000D01*
X162996348Y-93055309D01*
X163142576Y-93274154D01*
X163142577Y-93274155D01*
X163191952Y-93348049D01*
X163265845Y-93397423D01*
X164412577Y-94544156D01*
X164461951Y-94618049D01*
X164535844Y-94667423D01*
X164535845Y-94667424D01*
X164539325Y-94669749D01*
X164754690Y-94813652D01*
X165012835Y-94865000D01*
X165012839Y-94865000D01*
X165099999Y-94882337D01*
X165187159Y-94865000D01*
X165225604Y-94865000D01*
X165485000Y-95124396D01*
X165485001Y-97702835D01*
X165467663Y-97790000D01*
X165536348Y-98135309D01*
X165682576Y-98354154D01*
X165682578Y-98354156D01*
X165731952Y-98428049D01*
X165805845Y-98477423D01*
X166952577Y-99624156D01*
X167001951Y-99698049D01*
X167075844Y-99747423D01*
X167075845Y-99747424D01*
X167103414Y-99765845D01*
X167294690Y-99893652D01*
X167552835Y-99945000D01*
X167552839Y-99945000D01*
X167639999Y-99962337D01*
X167727159Y-99945000D01*
X173623422Y-99945000D01*
X173905000Y-100226578D01*
X173905000Y-100599526D01*
X174111286Y-101097546D01*
X174492454Y-101478714D01*
X174990474Y-101685000D01*
X175529526Y-101685000D01*
X176027546Y-101478714D01*
X176408714Y-101097546D01*
X176615000Y-100599526D01*
X176615000Y-100060474D01*
X176408714Y-99562454D01*
X176027546Y-99181286D01*
X175529526Y-98975000D01*
X175156578Y-98975000D01*
X174677424Y-98495846D01*
X174628049Y-98421951D01*
X174335310Y-98226348D01*
X174077165Y-98175000D01*
X174077161Y-98175000D01*
X173990000Y-98157663D01*
X173902839Y-98175000D01*
X168006579Y-98175000D01*
X167255000Y-97423422D01*
X167255000Y-95124396D01*
X167586534Y-94792862D01*
X167805000Y-94265439D01*
X167805000Y-93694561D01*
X167586534Y-93167138D01*
X167182862Y-92763466D01*
X166655439Y-92545000D01*
X166084561Y-92545000D01*
X165557138Y-92763466D01*
X165346091Y-92974513D01*
X164715000Y-92343422D01*
X164715000Y-81750000D01*
X164922560Y-81750000D01*
X164922560Y-83350000D01*
X164971843Y-83597765D01*
X165112191Y-83807809D01*
X165322235Y-83948157D01*
X165570000Y-83997440D01*
X165585000Y-83997440D01*
X165585001Y-87671925D01*
X165557138Y-87683466D01*
X165153466Y-88087138D01*
X164935000Y-88614561D01*
X164935000Y-89185439D01*
X165153466Y-89712862D01*
X165557138Y-90116534D01*
X166084561Y-90335000D01*
X166655439Y-90335000D01*
X167182862Y-90116534D01*
X167586534Y-89712862D01*
X167640394Y-89582832D01*
X167875423Y-89934577D01*
X168150001Y-90118044D01*
X168150000Y-92507002D01*
X168109622Y-92710000D01*
X168170546Y-93016291D01*
X168300251Y-93210408D01*
X169245223Y-94155381D01*
X168963466Y-94437138D01*
X168745000Y-94964561D01*
X168745000Y-95535439D01*
X168963466Y-96062862D01*
X169367138Y-96466534D01*
X169894561Y-96685000D01*
X170465439Y-96685000D01*
X170992862Y-96466534D01*
X171396534Y-96062862D01*
X171615000Y-95535439D01*
X171615000Y-94964561D01*
X171396534Y-94437138D01*
X170992862Y-94033466D01*
X170971503Y-94024619D01*
X170980378Y-93979999D01*
X170965000Y-93902688D01*
X170965000Y-93902684D01*
X170919454Y-93673708D01*
X170799408Y-93494047D01*
X170789749Y-93479591D01*
X170789747Y-93479589D01*
X170745953Y-93414047D01*
X170680411Y-93370253D01*
X169670000Y-92359843D01*
X169670000Y-90118043D01*
X169944577Y-89934577D01*
X170261740Y-89459909D01*
X170373113Y-88900000D01*
X170261740Y-88340091D01*
X169944577Y-87865423D01*
X169695000Y-87698661D01*
X169695000Y-83751339D01*
X169944577Y-83584577D01*
X170180000Y-83232242D01*
X170415423Y-83584577D01*
X170665000Y-83751339D01*
X170665001Y-87552683D01*
X170649622Y-87630000D01*
X170710546Y-87936291D01*
X170840251Y-88130408D01*
X170840254Y-88130411D01*
X170884048Y-88195953D01*
X170949590Y-88239747D01*
X171296541Y-88586698D01*
X171285000Y-88614561D01*
X171285000Y-89185439D01*
X171503466Y-89712862D01*
X171907138Y-90116534D01*
X171935000Y-90128075D01*
X171935001Y-91362683D01*
X171919622Y-91440000D01*
X171980546Y-91746291D01*
X172110251Y-91940408D01*
X172110254Y-91940411D01*
X172154048Y-92005953D01*
X172219590Y-92049747D01*
X174285223Y-94115381D01*
X173963466Y-94437138D01*
X173745000Y-94964561D01*
X173745000Y-95535439D01*
X173963466Y-96062862D01*
X174367138Y-96466534D01*
X174894561Y-96685000D01*
X175465439Y-96685000D01*
X175992862Y-96466534D01*
X176396534Y-96062862D01*
X176615000Y-95535439D01*
X176615000Y-94964561D01*
X176396534Y-94437138D01*
X176040306Y-94080910D01*
X176060378Y-93980001D01*
X176005580Y-93704506D01*
X177685000Y-93704506D01*
X177685000Y-94255494D01*
X177895853Y-94764540D01*
X178285460Y-95154147D01*
X178794506Y-95365000D01*
X179345494Y-95365000D01*
X179854540Y-95154147D01*
X180244147Y-94764540D01*
X180455000Y-94255494D01*
X180455000Y-93704506D01*
X180244147Y-93195460D01*
X179854540Y-92805853D01*
X179345494Y-92595000D01*
X178794506Y-92595000D01*
X178285460Y-92805853D01*
X177895853Y-93195460D01*
X177685000Y-93704506D01*
X176005580Y-93704506D01*
X175999454Y-93673709D01*
X175973383Y-93634691D01*
X175869749Y-93479591D01*
X175869747Y-93479589D01*
X175825953Y-93414047D01*
X175760411Y-93370253D01*
X173505000Y-91114843D01*
X173505000Y-90128075D01*
X173532862Y-90116534D01*
X173936534Y-89712862D01*
X173990394Y-89582832D01*
X174225423Y-89934577D01*
X174700091Y-90251740D01*
X175118667Y-90335000D01*
X175401333Y-90335000D01*
X175554396Y-90304554D01*
X175930253Y-90680411D01*
X175974047Y-90745953D01*
X176039589Y-90789747D01*
X176039591Y-90789749D01*
X176100207Y-90830251D01*
X176233708Y-90919454D01*
X176462684Y-90965000D01*
X176462688Y-90965000D01*
X176539999Y-90980378D01*
X176617310Y-90965000D01*
X177896313Y-90965000D01*
X178285460Y-91354147D01*
X178794506Y-91565000D01*
X179345494Y-91565000D01*
X179854540Y-91354147D01*
X180244147Y-90964540D01*
X180455000Y-90455494D01*
X180455000Y-89904506D01*
X180244147Y-89395460D01*
X179854540Y-89005853D01*
X179345494Y-88795000D01*
X178794506Y-88795000D01*
X178285460Y-89005853D01*
X177896313Y-89395000D01*
X176865158Y-89395000D01*
X176664554Y-89194396D01*
X176723113Y-88900000D01*
X176611740Y-88340091D01*
X176294577Y-87865423D01*
X176045000Y-87698661D01*
X176045000Y-86685157D01*
X177030411Y-85699747D01*
X177095953Y-85655953D01*
X177139747Y-85590411D01*
X177139749Y-85590409D01*
X177189885Y-85515375D01*
X177269454Y-85396292D01*
X177315000Y-85167316D01*
X177315000Y-85167312D01*
X177330378Y-85090001D01*
X177315000Y-85012690D01*
X177315000Y-83751339D01*
X177564577Y-83584577D01*
X177800000Y-83232242D01*
X178035423Y-83584577D01*
X178510091Y-83901740D01*
X178928667Y-83985000D01*
X179211333Y-83985000D01*
X179629909Y-83901740D01*
X180104577Y-83584577D01*
X180360947Y-83200892D01*
X180457611Y-83405134D01*
X180872577Y-83781041D01*
X181260961Y-83941904D01*
X181483000Y-83819915D01*
X181483000Y-82677000D01*
X181737000Y-82677000D01*
X181737000Y-83819915D01*
X181959039Y-83941904D01*
X182347423Y-83781041D01*
X182762389Y-83405134D01*
X183001914Y-82899041D01*
X182880629Y-82677000D01*
X181737000Y-82677000D01*
X181483000Y-82677000D01*
X181463000Y-82677000D01*
X181463000Y-82423000D01*
X181483000Y-82423000D01*
X181483000Y-81280085D01*
X181737000Y-81280085D01*
X181737000Y-82423000D01*
X182880629Y-82423000D01*
X183001914Y-82200959D01*
X182762389Y-81694866D01*
X182347423Y-81318959D01*
X181959039Y-81158096D01*
X181737000Y-81280085D01*
X181483000Y-81280085D01*
X181260961Y-81158096D01*
X180872577Y-81318959D01*
X180457611Y-81694866D01*
X180360947Y-81899108D01*
X180104577Y-81515423D01*
X179629909Y-81198260D01*
X179211333Y-81115000D01*
X178928667Y-81115000D01*
X178510091Y-81198260D01*
X178035423Y-81515423D01*
X177800000Y-81867758D01*
X177564577Y-81515423D01*
X177089909Y-81198260D01*
X176671333Y-81115000D01*
X176388667Y-81115000D01*
X175970091Y-81198260D01*
X175495423Y-81515423D01*
X175328661Y-81765000D01*
X175191339Y-81765000D01*
X175024577Y-81515423D01*
X174549909Y-81198260D01*
X174131333Y-81115000D01*
X173848667Y-81115000D01*
X173430091Y-81198260D01*
X172955423Y-81515423D01*
X172720000Y-81867758D01*
X172484577Y-81515423D01*
X172009909Y-81198260D01*
X171591333Y-81115000D01*
X171308667Y-81115000D01*
X170890091Y-81198260D01*
X170415423Y-81515423D01*
X170180000Y-81867758D01*
X169944577Y-81515423D01*
X169469909Y-81198260D01*
X169051333Y-81115000D01*
X168768667Y-81115000D01*
X168350091Y-81198260D01*
X167875423Y-81515423D01*
X167794785Y-81636106D01*
X167768157Y-81502235D01*
X167627809Y-81292191D01*
X167417765Y-81151843D01*
X167170000Y-81102560D01*
X165570000Y-81102560D01*
X165322235Y-81151843D01*
X165112191Y-81292191D01*
X164971843Y-81502235D01*
X164922560Y-81750000D01*
X164715000Y-81750000D01*
X164715000Y-77836578D01*
X166193562Y-76358017D01*
X166228667Y-76365000D01*
X166511333Y-76365000D01*
X166929909Y-76281740D01*
X167404577Y-75964577D01*
X167640000Y-75612242D01*
X167875423Y-75964577D01*
X168350091Y-76281740D01*
X168768667Y-76365000D01*
X169051333Y-76365000D01*
X169469909Y-76281740D01*
X169944577Y-75964577D01*
X170180000Y-75612242D01*
X170415423Y-75964577D01*
X170890091Y-76281740D01*
X171308667Y-76365000D01*
X171591333Y-76365000D01*
X172009909Y-76281740D01*
X172484577Y-75964577D01*
X172720000Y-75612242D01*
X172955423Y-75964577D01*
X173430091Y-76281740D01*
X173848667Y-76365000D01*
X174131333Y-76365000D01*
X174549909Y-76281740D01*
X175024577Y-75964577D01*
X175260000Y-75612242D01*
X175495423Y-75964577D01*
X175970091Y-76281740D01*
X176388667Y-76365000D01*
X176671333Y-76365000D01*
X177089909Y-76281740D01*
X177564577Y-75964577D01*
X177800000Y-75612242D01*
X178035423Y-75964577D01*
X178510091Y-76281740D01*
X178900607Y-76359418D01*
X178780100Y-76409334D01*
X178179514Y-77009920D01*
X177854480Y-77794622D01*
X177854480Y-78643978D01*
X178179514Y-79428680D01*
X178780100Y-80029266D01*
X179564802Y-80354300D01*
X180414158Y-80354300D01*
X181198860Y-80029266D01*
X181799446Y-79428680D01*
X182124480Y-78643978D01*
X182124480Y-77794622D01*
X181799446Y-77009920D01*
X181198860Y-76409334D01*
X180414158Y-76084300D01*
X179925399Y-76084300D01*
X180104577Y-75964577D01*
X180340000Y-75612242D01*
X180575423Y-75964577D01*
X181050091Y-76281740D01*
X181468667Y-76365000D01*
X181751333Y-76365000D01*
X182169909Y-76281740D01*
X182644577Y-75964577D01*
X182961740Y-75489909D01*
X183073113Y-74930000D01*
X182961740Y-74370091D01*
X182644577Y-73895423D01*
X182404487Y-73735000D01*
X184075001Y-73735000D01*
X184075000Y-113590000D01*
X101040000Y-113590000D01*
X101040000Y-108795322D01*
X102855900Y-108795322D01*
X102855900Y-109644678D01*
X103180934Y-110429380D01*
X103781520Y-111029966D01*
X104566222Y-111355000D01*
X105415578Y-111355000D01*
X106200280Y-111029966D01*
X106800866Y-110429380D01*
X107125900Y-109644678D01*
X107125900Y-109505750D01*
X108955000Y-109505750D01*
X108955000Y-110646310D01*
X109051673Y-110879699D01*
X109230302Y-111058327D01*
X109463691Y-111155000D01*
X110204250Y-111155000D01*
X110363000Y-110996250D01*
X110363000Y-109347000D01*
X109113750Y-109347000D01*
X108955000Y-109505750D01*
X107125900Y-109505750D01*
X107125900Y-108795322D01*
X106800866Y-108010620D01*
X106583936Y-107793690D01*
X108955000Y-107793690D01*
X108955000Y-108934250D01*
X109113750Y-109093000D01*
X110363000Y-109093000D01*
X110363000Y-107443750D01*
X110204250Y-107285000D01*
X109463691Y-107285000D01*
X109230302Y-107381673D01*
X109051673Y-107560301D01*
X108955000Y-107793690D01*
X106583936Y-107793690D01*
X106200280Y-107410034D01*
X105415578Y-107085000D01*
X104566222Y-107085000D01*
X103781520Y-107410034D01*
X103180934Y-108010620D01*
X102855900Y-108795322D01*
X101040000Y-108795322D01*
X101040000Y-106644213D01*
X109689392Y-106644213D01*
X109758857Y-106886397D01*
X110282302Y-107073144D01*
X110837368Y-107045362D01*
X111221143Y-106886397D01*
X111290608Y-106644213D01*
X110490000Y-105843605D01*
X109689392Y-106644213D01*
X101040000Y-106644213D01*
X101040000Y-105456302D01*
X109080856Y-105456302D01*
X109108638Y-106011368D01*
X109267603Y-106395143D01*
X109509787Y-106464608D01*
X110310395Y-105664000D01*
X109509787Y-104863392D01*
X109267603Y-104932857D01*
X109080856Y-105456302D01*
X101040000Y-105456302D01*
X101040000Y-86638110D01*
X104048524Y-86638110D01*
X104169845Y-86868000D01*
X105363000Y-86868000D01*
X105363000Y-85674181D01*
X105617000Y-85674181D01*
X105617000Y-86868000D01*
X106810155Y-86868000D01*
X106931476Y-86638110D01*
X106761645Y-86228076D01*
X106371358Y-85799817D01*
X105846892Y-85553514D01*
X105617000Y-85674181D01*
X105363000Y-85674181D01*
X105133108Y-85553514D01*
X104608642Y-85799817D01*
X104218355Y-86228076D01*
X104048524Y-86638110D01*
X101040000Y-86638110D01*
X101040000Y-81244213D01*
X109689392Y-81244213D01*
X109758857Y-81486397D01*
X110282302Y-81673144D01*
X110837368Y-81645362D01*
X111221143Y-81486397D01*
X111290608Y-81244213D01*
X110490000Y-80443605D01*
X109689392Y-81244213D01*
X101040000Y-81244213D01*
X101040000Y-77794622D01*
X102855900Y-77794622D01*
X102855900Y-78643978D01*
X103180934Y-79428680D01*
X103781520Y-80029266D01*
X104566222Y-80354300D01*
X105415578Y-80354300D01*
X106135009Y-80056302D01*
X109080856Y-80056302D01*
X109108638Y-80611368D01*
X109267603Y-80995143D01*
X109509787Y-81064608D01*
X110310395Y-80264000D01*
X109509787Y-79463392D01*
X109267603Y-79532857D01*
X109080856Y-80056302D01*
X106135009Y-80056302D01*
X106200280Y-80029266D01*
X106800866Y-79428680D01*
X106860882Y-79283787D01*
X109689392Y-79283787D01*
X110490000Y-80084395D01*
X111290608Y-79283787D01*
X111221143Y-79041603D01*
X110697698Y-78854856D01*
X110142632Y-78882638D01*
X109758857Y-79041603D01*
X109689392Y-79283787D01*
X106860882Y-79283787D01*
X107125900Y-78643978D01*
X107125900Y-77794622D01*
X106800866Y-77009920D01*
X106200280Y-76409334D01*
X105415578Y-76084300D01*
X104566222Y-76084300D01*
X103781520Y-76409334D01*
X103180934Y-77009920D01*
X102855900Y-77794622D01*
X101040000Y-77794622D01*
X101040000Y-73735000D01*
X165575513Y-73735000D01*
X165335423Y-73895423D01*
X165335423Y-73895423D01*
G37*
X165335423Y-73895423D02*
X165018260Y-74370091D01*
X164906887Y-74930000D01*
X164941983Y-75106438D01*
X163463422Y-76585000D01*
X115911161Y-76585000D01*
X115824000Y-76567663D01*
X115736839Y-76585000D01*
X115736835Y-76585000D01*
X115478690Y-76636348D01*
X115259845Y-76782576D01*
X115259844Y-76782577D01*
X115185951Y-76831951D01*
X115136577Y-76905844D01*
X113175422Y-78867000D01*
X112752119Y-78867000D01*
X112238663Y-79079680D01*
X111845680Y-79472663D01*
X111766572Y-79663647D01*
X111712397Y-79532857D01*
X111470213Y-79463392D01*
X110669605Y-80264000D01*
X111470213Y-81064608D01*
X111712397Y-80995143D01*
X111762535Y-80854607D01*
X111845680Y-81055337D01*
X112145000Y-81354657D01*
X112145001Y-92343420D01*
X106922319Y-97566103D01*
X107004092Y-97155000D01*
X106888839Y-96575582D01*
X106560625Y-96084375D01*
X106262239Y-95885000D01*
X106560625Y-95685625D01*
X106888839Y-95194418D01*
X107004092Y-94615000D01*
X106888839Y-94035582D01*
X106560625Y-93544375D01*
X106262239Y-93345000D01*
X106560625Y-93145625D01*
X106888839Y-92654418D01*
X107004092Y-92075000D01*
X106888839Y-91495582D01*
X106560625Y-91004375D01*
X106262239Y-90805000D01*
X106560625Y-90605625D01*
X106888839Y-90114418D01*
X107004092Y-89535000D01*
X106888839Y-88955582D01*
X106560625Y-88464375D01*
X106241522Y-88251157D01*
X106371358Y-88190183D01*
X106761645Y-87761924D01*
X106931476Y-87351890D01*
X106810155Y-87122000D01*
X105617000Y-87122000D01*
X105617000Y-87142000D01*
X105363000Y-87142000D01*
X105363000Y-87122000D01*
X104169845Y-87122000D01*
X104048524Y-87351890D01*
X104218355Y-87761924D01*
X104608642Y-88190183D01*
X104738478Y-88251157D01*
X104419375Y-88464375D01*
X104091161Y-88955582D01*
X103975908Y-89535000D01*
X104091161Y-90114418D01*
X104419375Y-90605625D01*
X104717761Y-90805000D01*
X104419375Y-91004375D01*
X104091161Y-91495582D01*
X103975908Y-92075000D01*
X104091161Y-92654418D01*
X104419375Y-93145625D01*
X104717761Y-93345000D01*
X104419375Y-93544375D01*
X104091161Y-94035582D01*
X103975908Y-94615000D01*
X104091161Y-95194418D01*
X104419375Y-95685625D01*
X104717761Y-95885000D01*
X104419375Y-96084375D01*
X104091161Y-96575582D01*
X103975908Y-97155000D01*
X104091161Y-97734418D01*
X104419375Y-98225625D01*
X104437619Y-98237816D01*
X104392235Y-98246843D01*
X104182191Y-98387191D01*
X104041843Y-98597235D01*
X103992560Y-98845000D01*
X103992560Y-100545000D01*
X104041843Y-100792765D01*
X104182191Y-101002809D01*
X104392235Y-101143157D01*
X104640000Y-101192440D01*
X106340000Y-101192440D01*
X106587765Y-101143157D01*
X106797809Y-101002809D01*
X106925752Y-100811330D01*
X110384932Y-104270510D01*
X110142632Y-104282638D01*
X109758857Y-104441603D01*
X109689392Y-104683787D01*
X110490000Y-105484395D01*
X110504143Y-105470253D01*
X110683748Y-105649858D01*
X110669605Y-105664000D01*
X111470213Y-106464608D01*
X111712397Y-106395143D01*
X111762535Y-106254607D01*
X111845680Y-106455337D01*
X112145000Y-106754657D01*
X112145001Y-107565209D01*
X111976888Y-107677538D01*
X111928327Y-107560301D01*
X111749698Y-107381673D01*
X111516309Y-107285000D01*
X110775750Y-107285000D01*
X110617000Y-107443750D01*
X110617000Y-109093000D01*
X110637000Y-109093000D01*
X110637000Y-109347000D01*
X110617000Y-109347000D01*
X110617000Y-110996250D01*
X110775750Y-111155000D01*
X111516309Y-111155000D01*
X111749698Y-111058327D01*
X111928327Y-110879699D01*
X111976889Y-110762461D01*
X112431074Y-111065938D01*
X113030000Y-111185072D01*
X113628927Y-111065938D01*
X114136673Y-110726673D01*
X114300000Y-110482236D01*
X114463328Y-110726673D01*
X114971074Y-111065938D01*
X115570000Y-111185072D01*
X116168927Y-111065938D01*
X116676673Y-110726673D01*
X116840000Y-110482236D01*
X117003328Y-110726673D01*
X117511074Y-111065938D01*
X118110000Y-111185072D01*
X118708927Y-111065938D01*
X119216673Y-110726673D01*
X119391703Y-110464723D01*
X119654394Y-110795212D01*
X120179914Y-111086756D01*
X120285260Y-111111036D01*
X120523000Y-110990378D01*
X120523000Y-109347000D01*
X120503000Y-109347000D01*
X120503000Y-109093000D01*
X120523000Y-109093000D01*
X120523000Y-107449622D01*
X120285260Y-107328964D01*
X120179914Y-107353244D01*
X119935094Y-107489063D01*
X120365782Y-107058375D01*
X120372119Y-107061000D01*
X120927881Y-107061000D01*
X121441337Y-106848320D01*
X121834320Y-106455337D01*
X121920000Y-106248487D01*
X122005680Y-106455337D01*
X122398663Y-106848320D01*
X122405000Y-106850945D01*
X122405001Y-107498392D01*
X122083327Y-107713327D01*
X121908298Y-107975278D01*
X121645606Y-107644788D01*
X121120086Y-107353244D01*
X121014740Y-107328964D01*
X120777000Y-107449622D01*
X120777000Y-109093000D01*
X120797000Y-109093000D01*
X120797000Y-109347000D01*
X120777000Y-109347000D01*
X120777000Y-110990378D01*
X121014740Y-111111036D01*
X121120086Y-111086756D01*
X121645606Y-110795212D01*
X121908298Y-110464722D01*
X122083328Y-110726673D01*
X122591074Y-111065938D01*
X123190000Y-111185072D01*
X123788927Y-111065938D01*
X124296673Y-110726673D01*
X124460000Y-110482236D01*
X124623328Y-110726673D01*
X125131074Y-111065938D01*
X125730000Y-111185072D01*
X126328927Y-111065938D01*
X126836673Y-110726673D01*
X127000000Y-110482236D01*
X127163328Y-110726673D01*
X127671074Y-111065938D01*
X128270000Y-111185072D01*
X128868927Y-111065938D01*
X129376673Y-110726673D01*
X129540000Y-110482236D01*
X129703328Y-110726673D01*
X130211074Y-111065938D01*
X130810000Y-111185072D01*
X131408927Y-111065938D01*
X131916673Y-110726673D01*
X132080000Y-110482236D01*
X132243328Y-110726673D01*
X132751074Y-111065938D01*
X133350000Y-111185072D01*
X133948927Y-111065938D01*
X134456673Y-110726673D01*
X134620000Y-110482236D01*
X134783328Y-110726673D01*
X135291074Y-111065938D01*
X135890000Y-111185072D01*
X136488927Y-111065938D01*
X136996673Y-110726673D01*
X137160000Y-110482236D01*
X137323328Y-110726673D01*
X137831074Y-111065938D01*
X138430000Y-111185072D01*
X139028927Y-111065938D01*
X139536673Y-110726673D01*
X139700000Y-110482236D01*
X139863328Y-110726673D01*
X140371074Y-111065938D01*
X140970000Y-111185072D01*
X141568927Y-111065938D01*
X142076673Y-110726673D01*
X142240000Y-110482236D01*
X142403328Y-110726673D01*
X142911074Y-111065938D01*
X143510000Y-111185072D01*
X144108927Y-111065938D01*
X144616673Y-110726673D01*
X144780000Y-110482236D01*
X144943328Y-110726673D01*
X145451074Y-111065938D01*
X146050000Y-111185072D01*
X146648927Y-111065938D01*
X147156673Y-110726673D01*
X147331703Y-110464723D01*
X147594394Y-110795212D01*
X148119914Y-111086756D01*
X148225260Y-111111036D01*
X148463000Y-110990378D01*
X148463000Y-109347000D01*
X148717000Y-109347000D01*
X148717000Y-110990378D01*
X148954740Y-111111036D01*
X149060086Y-111086756D01*
X149585606Y-110795212D01*
X149959554Y-110324752D01*
X150125000Y-109747000D01*
X150125000Y-109347000D01*
X148717000Y-109347000D01*
X148463000Y-109347000D01*
X148443000Y-109347000D01*
X148443000Y-109093000D01*
X148463000Y-109093000D01*
X148463000Y-109073000D01*
X148717000Y-109073000D01*
X148717000Y-109093000D01*
X150125000Y-109093000D01*
X150125000Y-108795322D01*
X177855000Y-108795322D01*
X177855000Y-109644678D01*
X178180034Y-110429380D01*
X178780620Y-111029966D01*
X179565322Y-111355000D01*
X180414678Y-111355000D01*
X181199380Y-111029966D01*
X181799966Y-110429380D01*
X182125000Y-109644678D01*
X182125000Y-108795322D01*
X181799966Y-108010620D01*
X181199380Y-107410034D01*
X180414678Y-107085000D01*
X179565322Y-107085000D01*
X178780620Y-107410034D01*
X178180034Y-108010620D01*
X177855000Y-108795322D01*
X150125000Y-108795322D01*
X150125000Y-108693000D01*
X149959554Y-108115248D01*
X149780521Y-107890009D01*
X163986831Y-107890009D01*
X164108040Y-107899459D01*
X164208893Y-107866609D01*
X164312938Y-107845913D01*
X164351465Y-107820170D01*
X164395521Y-107805820D01*
X164476131Y-107736871D01*
X164564330Y-107677938D01*
X164631881Y-107576841D01*
X165589901Y-106359774D01*
X174489831Y-106359774D01*
X174554131Y-106597611D01*
X175062342Y-106777333D01*
X175600644Y-106748892D01*
X175965869Y-106597611D01*
X176030169Y-106359774D01*
X175260000Y-105589605D01*
X174489831Y-106359774D01*
X165589901Y-106359774D01*
X166210486Y-105571384D01*
X166228667Y-105575000D01*
X166511333Y-105575000D01*
X166929909Y-105491740D01*
X167348057Y-105212342D01*
X173892667Y-105212342D01*
X173921108Y-105750644D01*
X174072389Y-106115869D01*
X174310226Y-106180169D01*
X175080395Y-105410000D01*
X175439605Y-105410000D01*
X176209774Y-106180169D01*
X176447611Y-106115869D01*
X176627333Y-105607658D01*
X176598892Y-105069356D01*
X176447611Y-104704131D01*
X176209774Y-104639831D01*
X175439605Y-105410000D01*
X175080395Y-105410000D01*
X174310226Y-104639831D01*
X174072389Y-104704131D01*
X173892667Y-105212342D01*
X167348057Y-105212342D01*
X167404577Y-105174577D01*
X167721740Y-104699909D01*
X167769415Y-104460226D01*
X174489831Y-104460226D01*
X175260000Y-105230395D01*
X176030169Y-104460226D01*
X175965869Y-104222389D01*
X175457658Y-104042667D01*
X174919356Y-104071108D01*
X174554131Y-104222389D01*
X174489831Y-104460226D01*
X167769415Y-104460226D01*
X167833113Y-104140000D01*
X167736640Y-103655000D01*
X171588740Y-103655000D01*
X171952454Y-104018714D01*
X172450474Y-104225000D01*
X172989526Y-104225000D01*
X173487546Y-104018714D01*
X173868714Y-103637546D01*
X174075000Y-103139526D01*
X174075000Y-102600474D01*
X173868714Y-102102454D01*
X173487546Y-101721286D01*
X172989526Y-101515000D01*
X172450474Y-101515000D01*
X171952454Y-101721286D01*
X171588740Y-102085000D01*
X119335550Y-102085000D01*
X119258238Y-102069622D01*
X119180926Y-102085000D01*
X119180922Y-102085000D01*
X118951946Y-102130546D01*
X118757829Y-102260251D01*
X118757827Y-102260253D01*
X118692285Y-102304047D01*
X118648491Y-102369589D01*
X116449869Y-104568212D01*
X116361337Y-104479680D01*
X115847881Y-104267000D01*
X115292119Y-104267000D01*
X114778663Y-104479680D01*
X114385680Y-104872663D01*
X114300000Y-105079513D01*
X114214320Y-104872663D01*
X113821337Y-104479680D01*
X113307881Y-104267000D01*
X112884579Y-104267000D01*
X107804578Y-99187000D01*
X113594156Y-93397423D01*
X113668049Y-93348049D01*
X113717425Y-93274154D01*
X113863651Y-93055311D01*
X113863652Y-93055310D01*
X113915000Y-92797165D01*
X113915000Y-92797161D01*
X113932337Y-92710001D01*
X113915000Y-92622841D01*
X113915000Y-81354657D01*
X114214320Y-81055337D01*
X114300000Y-80848487D01*
X114385680Y-81055337D01*
X114778663Y-81448320D01*
X115292119Y-81661000D01*
X115847881Y-81661000D01*
X116361337Y-81448320D01*
X116754320Y-81055337D01*
X116840000Y-80848487D01*
X116925680Y-81055337D01*
X117318663Y-81448320D01*
X117832119Y-81661000D01*
X118387881Y-81661000D01*
X118901337Y-81448320D01*
X119294320Y-81055337D01*
X119380000Y-80848487D01*
X119465680Y-81055337D01*
X119858663Y-81448320D01*
X120372119Y-81661000D01*
X120927881Y-81661000D01*
X121441337Y-81448320D01*
X121834320Y-81055337D01*
X121920000Y-80848487D01*
X122005680Y-81055337D01*
X122398663Y-81448320D01*
X122912119Y-81661000D01*
X123467881Y-81661000D01*
X123981337Y-81448320D01*
X124374320Y-81055337D01*
X124460000Y-80848487D01*
X124545680Y-81055337D01*
X124938663Y-81448320D01*
X125452119Y-81661000D01*
X126007881Y-81661000D01*
X126521337Y-81448320D01*
X126914320Y-81055337D01*
X127000000Y-80848487D01*
X127085680Y-81055337D01*
X127478663Y-81448320D01*
X127992119Y-81661000D01*
X128547881Y-81661000D01*
X129061337Y-81448320D01*
X129454320Y-81055337D01*
X129540000Y-80848487D01*
X129625680Y-81055337D01*
X130018663Y-81448320D01*
X130532119Y-81661000D01*
X131087881Y-81661000D01*
X131601337Y-81448320D01*
X131994320Y-81055337D01*
X132080000Y-80848487D01*
X132165680Y-81055337D01*
X132558663Y-81448320D01*
X133072119Y-81661000D01*
X133627881Y-81661000D01*
X134141337Y-81448320D01*
X134534320Y-81055337D01*
X134620000Y-80848487D01*
X134705680Y-81055337D01*
X135098663Y-81448320D01*
X135612119Y-81661000D01*
X136167881Y-81661000D01*
X136681337Y-81448320D01*
X137074320Y-81055337D01*
X137160000Y-80848487D01*
X137245680Y-81055337D01*
X137638663Y-81448320D01*
X138152119Y-81661000D01*
X138707881Y-81661000D01*
X139221337Y-81448320D01*
X139614320Y-81055337D01*
X139700000Y-80848487D01*
X139785680Y-81055337D01*
X140178663Y-81448320D01*
X140692119Y-81661000D01*
X141247881Y-81661000D01*
X141761337Y-81448320D01*
X142154320Y-81055337D01*
X142240000Y-80848487D01*
X142325680Y-81055337D01*
X142718663Y-81448320D01*
X143232119Y-81661000D01*
X143787881Y-81661000D01*
X144301337Y-81448320D01*
X144694320Y-81055337D01*
X144780000Y-80848487D01*
X144865680Y-81055337D01*
X145258663Y-81448320D01*
X145772119Y-81661000D01*
X146327881Y-81661000D01*
X146841337Y-81448320D01*
X147234320Y-81055337D01*
X147320000Y-80848487D01*
X147405680Y-81055337D01*
X147798663Y-81448320D01*
X148312119Y-81661000D01*
X148867881Y-81661000D01*
X149381337Y-81448320D01*
X149774320Y-81055337D01*
X149860000Y-80848487D01*
X149945680Y-81055337D01*
X150338663Y-81448320D01*
X150852119Y-81661000D01*
X151407881Y-81661000D01*
X151921337Y-81448320D01*
X152314320Y-81055337D01*
X152400000Y-80848487D01*
X152485680Y-81055337D01*
X152878663Y-81448320D01*
X153392119Y-81661000D01*
X153947881Y-81661000D01*
X154461337Y-81448320D01*
X154854320Y-81055337D01*
X154940000Y-80848487D01*
X155025680Y-81055337D01*
X155418663Y-81448320D01*
X155932119Y-81661000D01*
X156487881Y-81661000D01*
X157001337Y-81448320D01*
X157394320Y-81055337D01*
X157480000Y-80848487D01*
X157565680Y-81055337D01*
X157958663Y-81448320D01*
X158472119Y-81661000D01*
X159027881Y-81661000D01*
X159541337Y-81448320D01*
X159934320Y-81055337D01*
X160147000Y-80541881D01*
X160147000Y-79986119D01*
X159934320Y-79472663D01*
X159541337Y-79079680D01*
X159027881Y-78867000D01*
X158472119Y-78867000D01*
X157958663Y-79079680D01*
X157565680Y-79472663D01*
X157480000Y-79679513D01*
X157394320Y-79472663D01*
X157001337Y-79079680D01*
X156487881Y-78867000D01*
X155932119Y-78867000D01*
X155418663Y-79079680D01*
X155025680Y-79472663D01*
X154940000Y-79679513D01*
X154854320Y-79472663D01*
X154461337Y-79079680D01*
X153947881Y-78867000D01*
X153392119Y-78867000D01*
X152878663Y-79079680D01*
X152485680Y-79472663D01*
X152400000Y-79679513D01*
X152314320Y-79472663D01*
X151921337Y-79079680D01*
X151407881Y-78867000D01*
X150852119Y-78867000D01*
X150338663Y-79079680D01*
X149945680Y-79472663D01*
X149860000Y-79679513D01*
X149774320Y-79472663D01*
X149381337Y-79079680D01*
X148867881Y-78867000D01*
X148312119Y-78867000D01*
X147798663Y-79079680D01*
X147405680Y-79472663D01*
X147320000Y-79679513D01*
X147234320Y-79472663D01*
X146841337Y-79079680D01*
X146327881Y-78867000D01*
X145772119Y-78867000D01*
X145258663Y-79079680D01*
X144865680Y-79472663D01*
X144780000Y-79679513D01*
X144694320Y-79472663D01*
X144301337Y-79079680D01*
X143787881Y-78867000D01*
X143232119Y-78867000D01*
X142718663Y-79079680D01*
X142325680Y-79472663D01*
X142240000Y-79679513D01*
X142154320Y-79472663D01*
X141761337Y-79079680D01*
X141247881Y-78867000D01*
X140692119Y-78867000D01*
X140178663Y-79079680D01*
X139785680Y-79472663D01*
X139700000Y-79679513D01*
X139614320Y-79472663D01*
X139221337Y-79079680D01*
X138707881Y-78867000D01*
X138152119Y-78867000D01*
X137638663Y-79079680D01*
X137245680Y-79472663D01*
X137160000Y-79679513D01*
X137074320Y-79472663D01*
X136681337Y-79079680D01*
X136167881Y-78867000D01*
X135612119Y-78867000D01*
X135098663Y-79079680D01*
X134705680Y-79472663D01*
X134620000Y-79679513D01*
X134534320Y-79472663D01*
X134141337Y-79079680D01*
X133627881Y-78867000D01*
X133072119Y-78867000D01*
X132558663Y-79079680D01*
X132165680Y-79472663D01*
X132080000Y-79679513D01*
X131994320Y-79472663D01*
X131601337Y-79079680D01*
X131087881Y-78867000D01*
X130532119Y-78867000D01*
X130018663Y-79079680D01*
X129625680Y-79472663D01*
X129540000Y-79679513D01*
X129454320Y-79472663D01*
X129061337Y-79079680D01*
X128547881Y-78867000D01*
X127992119Y-78867000D01*
X127478663Y-79079680D01*
X127085680Y-79472663D01*
X127000000Y-79679513D01*
X126914320Y-79472663D01*
X126521337Y-79079680D01*
X126007881Y-78867000D01*
X125452119Y-78867000D01*
X124938663Y-79079680D01*
X124545680Y-79472663D01*
X124460000Y-79679513D01*
X124374320Y-79472663D01*
X123981337Y-79079680D01*
X123467881Y-78867000D01*
X122912119Y-78867000D01*
X122398663Y-79079680D01*
X122005680Y-79472663D01*
X121920000Y-79679513D01*
X121834320Y-79472663D01*
X121441337Y-79079680D01*
X120927881Y-78867000D01*
X120372119Y-78867000D01*
X119858663Y-79079680D01*
X119465680Y-79472663D01*
X119380000Y-79679513D01*
X119294320Y-79472663D01*
X118901337Y-79079680D01*
X118387881Y-78867000D01*
X117832119Y-78867000D01*
X117318663Y-79079680D01*
X116925680Y-79472663D01*
X116840000Y-79679513D01*
X116754320Y-79472663D01*
X116361337Y-79079680D01*
X115847881Y-78867000D01*
X115678579Y-78867000D01*
X116190579Y-78355000D01*
X162945000Y-78355000D01*
X162945001Y-92622834D01*
X162927663Y-92710000D01*
X162996348Y-93055309D01*
X163142576Y-93274154D01*
X163142577Y-93274155D01*
X163191952Y-93348049D01*
X163265845Y-93397423D01*
X164412577Y-94544156D01*
X164461951Y-94618049D01*
X164535844Y-94667423D01*
X164535845Y-94667424D01*
X164539325Y-94669749D01*
X164754690Y-94813652D01*
X165012835Y-94865000D01*
X165012839Y-94865000D01*
X165099999Y-94882337D01*
X165187159Y-94865000D01*
X165225604Y-94865000D01*
X165485000Y-95124396D01*
X165485001Y-97702835D01*
X165467663Y-97790000D01*
X165536348Y-98135309D01*
X165682576Y-98354154D01*
X165682578Y-98354156D01*
X165731952Y-98428049D01*
X165805845Y-98477423D01*
X166952577Y-99624156D01*
X167001951Y-99698049D01*
X167075844Y-99747423D01*
X167075845Y-99747424D01*
X167103414Y-99765845D01*
X167294690Y-99893652D01*
X167552835Y-99945000D01*
X167552839Y-99945000D01*
X167639999Y-99962337D01*
X167727159Y-99945000D01*
X173623422Y-99945000D01*
X173905000Y-100226578D01*
X173905000Y-100599526D01*
X174111286Y-101097546D01*
X174492454Y-101478714D01*
X174990474Y-101685000D01*
X175529526Y-101685000D01*
X176027546Y-101478714D01*
X176408714Y-101097546D01*
X176615000Y-100599526D01*
X176615000Y-100060474D01*
X176408714Y-99562454D01*
X176027546Y-99181286D01*
X175529526Y-98975000D01*
X175156578Y-98975000D01*
X174677424Y-98495846D01*
X174628049Y-98421951D01*
X174335310Y-98226348D01*
X174077165Y-98175000D01*
X174077161Y-98175000D01*
X173990000Y-98157663D01*
X173902839Y-98175000D01*
X168006579Y-98175000D01*
X167255000Y-97423422D01*
X167255000Y-95124396D01*
X167586534Y-94792862D01*
X167805000Y-94265439D01*
X167805000Y-93694561D01*
X167586534Y-93167138D01*
X167182862Y-92763466D01*
X166655439Y-92545000D01*
X166084561Y-92545000D01*
X165557138Y-92763466D01*
X165346091Y-92974513D01*
X164715000Y-92343422D01*
X164715000Y-81750000D01*
X164922560Y-81750000D01*
X164922560Y-83350000D01*
X164971843Y-83597765D01*
X165112191Y-83807809D01*
X165322235Y-83948157D01*
X165570000Y-83997440D01*
X165585000Y-83997440D01*
X165585001Y-87671925D01*
X165557138Y-87683466D01*
X165153466Y-88087138D01*
X164935000Y-88614561D01*
X164935000Y-89185439D01*
X165153466Y-89712862D01*
X165557138Y-90116534D01*
X166084561Y-90335000D01*
X166655439Y-90335000D01*
X167182862Y-90116534D01*
X167586534Y-89712862D01*
X167640394Y-89582832D01*
X167875423Y-89934577D01*
X168150001Y-90118044D01*
X168150000Y-92507002D01*
X168109622Y-92710000D01*
X168170546Y-93016291D01*
X168300251Y-93210408D01*
X169245223Y-94155381D01*
X168963466Y-94437138D01*
X168745000Y-94964561D01*
X168745000Y-95535439D01*
X168963466Y-96062862D01*
X169367138Y-96466534D01*
X169894561Y-96685000D01*
X170465439Y-96685000D01*
X170992862Y-96466534D01*
X171396534Y-96062862D01*
X171615000Y-95535439D01*
X171615000Y-94964561D01*
X171396534Y-94437138D01*
X170992862Y-94033466D01*
X170971503Y-94024619D01*
X170980378Y-93979999D01*
X170965000Y-93902688D01*
X170965000Y-93902684D01*
X170919454Y-93673708D01*
X170799408Y-93494047D01*
X170789749Y-93479591D01*
X170789747Y-93479589D01*
X170745953Y-93414047D01*
X170680411Y-93370253D01*
X169670000Y-92359843D01*
X169670000Y-90118043D01*
X169944577Y-89934577D01*
X170261740Y-89459909D01*
X170373113Y-88900000D01*
X170261740Y-88340091D01*
X169944577Y-87865423D01*
X169695000Y-87698661D01*
X169695000Y-83751339D01*
X169944577Y-83584577D01*
X170180000Y-83232242D01*
X170415423Y-83584577D01*
X170665000Y-83751339D01*
X170665001Y-87552683D01*
X170649622Y-87630000D01*
X170710546Y-87936291D01*
X170840251Y-88130408D01*
X170840254Y-88130411D01*
X170884048Y-88195953D01*
X170949590Y-88239747D01*
X171296541Y-88586698D01*
X171285000Y-88614561D01*
X171285000Y-89185439D01*
X171503466Y-89712862D01*
X171907138Y-90116534D01*
X171935000Y-90128075D01*
X171935001Y-91362683D01*
X171919622Y-91440000D01*
X171980546Y-91746291D01*
X172110251Y-91940408D01*
X172110254Y-91940411D01*
X172154048Y-92005953D01*
X172219590Y-92049747D01*
X174285223Y-94115381D01*
X173963466Y-94437138D01*
X173745000Y-94964561D01*
X173745000Y-95535439D01*
X173963466Y-96062862D01*
X174367138Y-96466534D01*
X174894561Y-96685000D01*
X175465439Y-96685000D01*
X175992862Y-96466534D01*
X176396534Y-96062862D01*
X176615000Y-95535439D01*
X176615000Y-94964561D01*
X176396534Y-94437138D01*
X176040306Y-94080910D01*
X176060378Y-93980001D01*
X176005580Y-93704506D01*
X177685000Y-93704506D01*
X177685000Y-94255494D01*
X177895853Y-94764540D01*
X178285460Y-95154147D01*
X178794506Y-95365000D01*
X179345494Y-95365000D01*
X179854540Y-95154147D01*
X180244147Y-94764540D01*
X180455000Y-94255494D01*
X180455000Y-93704506D01*
X180244147Y-93195460D01*
X179854540Y-92805853D01*
X179345494Y-92595000D01*
X178794506Y-92595000D01*
X178285460Y-92805853D01*
X177895853Y-93195460D01*
X177685000Y-93704506D01*
X176005580Y-93704506D01*
X175999454Y-93673709D01*
X175973383Y-93634691D01*
X175869749Y-93479591D01*
X175869747Y-93479589D01*
X175825953Y-93414047D01*
X175760411Y-93370253D01*
X173505000Y-91114843D01*
X173505000Y-90128075D01*
X173532862Y-90116534D01*
X173936534Y-89712862D01*
X173990394Y-89582832D01*
X174225423Y-89934577D01*
X174700091Y-90251740D01*
X175118667Y-90335000D01*
X175401333Y-90335000D01*
X175554396Y-90304554D01*
X175930253Y-90680411D01*
X175974047Y-90745953D01*
X176039589Y-90789747D01*
X176039591Y-90789749D01*
X176100207Y-90830251D01*
X176233708Y-90919454D01*
X176462684Y-90965000D01*
X176462688Y-90965000D01*
X176539999Y-90980378D01*
X176617310Y-90965000D01*
X177896313Y-90965000D01*
X178285460Y-91354147D01*
X178794506Y-91565000D01*
X179345494Y-91565000D01*
X179854540Y-91354147D01*
X180244147Y-90964540D01*
X180455000Y-90455494D01*
X180455000Y-89904506D01*
X180244147Y-89395460D01*
X179854540Y-89005853D01*
X179345494Y-88795000D01*
X178794506Y-88795000D01*
X178285460Y-89005853D01*
X177896313Y-89395000D01*
X176865158Y-89395000D01*
X176664554Y-89194396D01*
X176723113Y-88900000D01*
X176611740Y-88340091D01*
X176294577Y-87865423D01*
X176045000Y-87698661D01*
X176045000Y-86685157D01*
X177030411Y-85699747D01*
X177095953Y-85655953D01*
X177139747Y-85590411D01*
X177139749Y-85590409D01*
X177189885Y-85515375D01*
X177269454Y-85396292D01*
X177315000Y-85167316D01*
X177315000Y-85167312D01*
X177330378Y-85090001D01*
X177315000Y-85012690D01*
X177315000Y-83751339D01*
X177564577Y-83584577D01*
X177800000Y-83232242D01*
X178035423Y-83584577D01*
X178510091Y-83901740D01*
X178928667Y-83985000D01*
X179211333Y-83985000D01*
X179629909Y-83901740D01*
X180104577Y-83584577D01*
X180360947Y-83200892D01*
X180457611Y-83405134D01*
X180872577Y-83781041D01*
X181260961Y-83941904D01*
X181483000Y-83819915D01*
X181483000Y-82677000D01*
X181737000Y-82677000D01*
X181737000Y-83819915D01*
X181959039Y-83941904D01*
X182347423Y-83781041D01*
X182762389Y-83405134D01*
X183001914Y-82899041D01*
X182880629Y-82677000D01*
X181737000Y-82677000D01*
X181483000Y-82677000D01*
X181463000Y-82677000D01*
X181463000Y-82423000D01*
X181483000Y-82423000D01*
X181483000Y-81280085D01*
X181737000Y-81280085D01*
X181737000Y-82423000D01*
X182880629Y-82423000D01*
X183001914Y-82200959D01*
X182762389Y-81694866D01*
X182347423Y-81318959D01*
X181959039Y-81158096D01*
X181737000Y-81280085D01*
X181483000Y-81280085D01*
X181260961Y-81158096D01*
X180872577Y-81318959D01*
X180457611Y-81694866D01*
X180360947Y-81899108D01*
X180104577Y-81515423D01*
X179629909Y-81198260D01*
X179211333Y-81115000D01*
X178928667Y-81115000D01*
X178510091Y-81198260D01*
X178035423Y-81515423D01*
X177800000Y-81867758D01*
X177564577Y-81515423D01*
X177089909Y-81198260D01*
X176671333Y-81115000D01*
X176388667Y-81115000D01*
X175970091Y-81198260D01*
X175495423Y-81515423D01*
X175328661Y-81765000D01*
X175191339Y-81765000D01*
X175024577Y-81515423D01*
X174549909Y-81198260D01*
X174131333Y-81115000D01*
X173848667Y-81115000D01*
X173430091Y-81198260D01*
X172955423Y-81515423D01*
X172720000Y-81867758D01*
X172484577Y-81515423D01*
X172009909Y-81198260D01*
X171591333Y-81115000D01*
X171308667Y-81115000D01*
X170890091Y-81198260D01*
X170415423Y-81515423D01*
X170180000Y-81867758D01*
X169944577Y-81515423D01*
X169469909Y-81198260D01*
X169051333Y-81115000D01*
X168768667Y-81115000D01*
X168350091Y-81198260D01*
X167875423Y-81515423D01*
X167794785Y-81636106D01*
X167768157Y-81502235D01*
X167627809Y-81292191D01*
X167417765Y-81151843D01*
X167170000Y-81102560D01*
X165570000Y-81102560D01*
X165322235Y-81151843D01*
X165112191Y-81292191D01*
X164971843Y-81502235D01*
X164922560Y-81750000D01*
X164715000Y-81750000D01*
X164715000Y-77836578D01*
X166193562Y-76358017D01*
X166228667Y-76365000D01*
X166511333Y-76365000D01*
X166929909Y-76281740D01*
X167404577Y-75964577D01*
X167640000Y-75612242D01*
X167875423Y-75964577D01*
X168350091Y-76281740D01*
X168768667Y-76365000D01*
X169051333Y-76365000D01*
X169469909Y-76281740D01*
X169944577Y-75964577D01*
X170180000Y-75612242D01*
X170415423Y-75964577D01*
X170890091Y-76281740D01*
X171308667Y-76365000D01*
X171591333Y-76365000D01*
X172009909Y-76281740D01*
X172484577Y-75964577D01*
X172720000Y-75612242D01*
X172955423Y-75964577D01*
X173430091Y-76281740D01*
X173848667Y-76365000D01*
X174131333Y-76365000D01*
X174549909Y-76281740D01*
X175024577Y-75964577D01*
X175260000Y-75612242D01*
X175495423Y-75964577D01*
X175970091Y-76281740D01*
X176388667Y-76365000D01*
X176671333Y-76365000D01*
X177089909Y-76281740D01*
X177564577Y-75964577D01*
X177800000Y-75612242D01*
X178035423Y-75964577D01*
X178510091Y-76281740D01*
X178900607Y-76359418D01*
X178780100Y-76409334D01*
X178179514Y-77009920D01*
X177854480Y-77794622D01*
X177854480Y-78643978D01*
X178179514Y-79428680D01*
X178780100Y-80029266D01*
X179564802Y-80354300D01*
X180414158Y-80354300D01*
X181198860Y-80029266D01*
X181799446Y-79428680D01*
X182124480Y-78643978D01*
X182124480Y-77794622D01*
X181799446Y-77009920D01*
X181198860Y-76409334D01*
X180414158Y-76084300D01*
X179925399Y-76084300D01*
X180104577Y-75964577D01*
X180340000Y-75612242D01*
X180575423Y-75964577D01*
X181050091Y-76281740D01*
X181468667Y-76365000D01*
X181751333Y-76365000D01*
X182169909Y-76281740D01*
X182644577Y-75964577D01*
X182961740Y-75489909D01*
X183073113Y-74930000D01*
X182961740Y-74370091D01*
X182644577Y-73895423D01*
X182404487Y-73735000D01*
X184075001Y-73735000D01*
X184075000Y-113590000D01*
X101040000Y-113590000D01*
X101040000Y-108795322D01*
X102855900Y-108795322D01*
X102855900Y-109644678D01*
X103180934Y-110429380D01*
X103781520Y-111029966D01*
X104566222Y-111355000D01*
X105415578Y-111355000D01*
X106200280Y-111029966D01*
X106800866Y-110429380D01*
X107125900Y-109644678D01*
X107125900Y-109505750D01*
X108955000Y-109505750D01*
X108955000Y-110646310D01*
X109051673Y-110879699D01*
X109230302Y-111058327D01*
X109463691Y-111155000D01*
X110204250Y-111155000D01*
X110363000Y-110996250D01*
X110363000Y-109347000D01*
X109113750Y-109347000D01*
X108955000Y-109505750D01*
X107125900Y-109505750D01*
X107125900Y-108795322D01*
X106800866Y-108010620D01*
X106583936Y-107793690D01*
X108955000Y-107793690D01*
X108955000Y-108934250D01*
X109113750Y-109093000D01*
X110363000Y-109093000D01*
X110363000Y-107443750D01*
X110204250Y-107285000D01*
X109463691Y-107285000D01*
X109230302Y-107381673D01*
X109051673Y-107560301D01*
X108955000Y-107793690D01*
X106583936Y-107793690D01*
X106200280Y-107410034D01*
X105415578Y-107085000D01*
X104566222Y-107085000D01*
X103781520Y-107410034D01*
X103180934Y-108010620D01*
X102855900Y-108795322D01*
X101040000Y-108795322D01*
X101040000Y-106644213D01*
X109689392Y-106644213D01*
X109758857Y-106886397D01*
X110282302Y-107073144D01*
X110837368Y-107045362D01*
X111221143Y-106886397D01*
X111290608Y-106644213D01*
X110490000Y-105843605D01*
X109689392Y-106644213D01*
X101040000Y-106644213D01*
X101040000Y-105456302D01*
X109080856Y-105456302D01*
X109108638Y-106011368D01*
X109267603Y-106395143D01*
X109509787Y-106464608D01*
X110310395Y-105664000D01*
X109509787Y-104863392D01*
X109267603Y-104932857D01*
X109080856Y-105456302D01*
X101040000Y-105456302D01*
X101040000Y-86638110D01*
X104048524Y-86638110D01*
X104169845Y-86868000D01*
X105363000Y-86868000D01*
X105363000Y-85674181D01*
X105617000Y-85674181D01*
X105617000Y-86868000D01*
X106810155Y-86868000D01*
X106931476Y-86638110D01*
X106761645Y-86228076D01*
X106371358Y-85799817D01*
X105846892Y-85553514D01*
X105617000Y-85674181D01*
X105363000Y-85674181D01*
X105133108Y-85553514D01*
X104608642Y-85799817D01*
X104218355Y-86228076D01*
X104048524Y-86638110D01*
X101040000Y-86638110D01*
X101040000Y-81244213D01*
X109689392Y-81244213D01*
X109758857Y-81486397D01*
X110282302Y-81673144D01*
X110837368Y-81645362D01*
X111221143Y-81486397D01*
X111290608Y-81244213D01*
X110490000Y-80443605D01*
X109689392Y-81244213D01*
X101040000Y-81244213D01*
X101040000Y-77794622D01*
X102855900Y-77794622D01*
X102855900Y-78643978D01*
X103180934Y-79428680D01*
X103781520Y-80029266D01*
X104566222Y-80354300D01*
X105415578Y-80354300D01*
X106135009Y-80056302D01*
X109080856Y-80056302D01*
X109108638Y-80611368D01*
X109267603Y-80995143D01*
X109509787Y-81064608D01*
X110310395Y-80264000D01*
X109509787Y-79463392D01*
X109267603Y-79532857D01*
X109080856Y-80056302D01*
X106135009Y-80056302D01*
X106200280Y-80029266D01*
X106800866Y-79428680D01*
X106860882Y-79283787D01*
X109689392Y-79283787D01*
X110490000Y-80084395D01*
X111290608Y-79283787D01*
X111221143Y-79041603D01*
X110697698Y-78854856D01*
X110142632Y-78882638D01*
X109758857Y-79041603D01*
X109689392Y-79283787D01*
X106860882Y-79283787D01*
X107125900Y-78643978D01*
X107125900Y-77794622D01*
X106800866Y-77009920D01*
X106200280Y-76409334D01*
X105415578Y-76084300D01*
X104566222Y-76084300D01*
X103781520Y-76409334D01*
X103180934Y-77009920D01*
X102855900Y-77794622D01*
X101040000Y-77794622D01*
X101040000Y-73735000D01*
X165575513Y-73735000D01*
X165335423Y-73895423D01*
G04 #@! TD*
M02*
